<svg width="150" height="150" viewBox="0 0 150 150" fill="none" xmlns="http://www.w3.org/2000/svg">
<path d="M75 16.4062C42.6398 16.4062 16.4062 42.6398 16.4062 75H133.594C133.594 42.6398 107.36 16.4062 75 16.4062Z" fill="#00B3AA"/>
<path d="M75 133.594C107.36 133.594 133.594 107.36 133.594 75H16.4062C16.4062 107.36 42.6398 133.594 75 133.594Z" fill="#018273"/>
<path d="M107.435 103.43L111.778 70.7063C108.691 71.1938 106.603 73.207 105.836 77.1375L100.898 113.96C98.7466 113.52 96.8763 111.766 97.1716 108.93L102.086 72.1523C99.0982 72.1523 97.1201 74.4141 96.4943 78.1172L92.763 105.834C92.763 105.834 89.299 106.711 88.9545 101.545L93.1404 70.1695C93.1404 70.1695 88.9545 69.907 88.324 73.8398L85.6756 91.9008C84.4568 91.5328 83.3318 90.7289 82.7107 89.6063C80.9248 86.3836 84.1943 65.2289 84.1943 65.2289C84.5529 59.2734 83.5873 53.3274 85.1084 47.4656C87.2693 39.1383 91.7224 36.6398 92.906 33.8672C93.4638 32.5594 93.3865 31.9313 94.5584 22.3383C94.8209 20.2758 96.7568 18.8953 99.0748 18.75H110.156V35.3625C110.156 36.1313 110.229 36.7969 110.779 37.3828C112.978 39.7266 119.972 44.6063 119.972 51.2391C120.304 54.4664 119.604 60.1031 117.865 62.6203C116.662 65.5031 111.466 106.013 111.466 106.013C111.466 106.013 108.476 105.396 107.435 103.43ZM128.367 82.0899C128.278 82.0172 123.047 79.3945 122.606 72.5461C122.606 66.9797 123.626 63.3914 123.626 63.3914L120.63 65.625C120.63 65.625 120.103 69.9586 119.411 75.6281C120.051 83.4234 128.367 82.0899 128.367 82.0899ZM59.2099 89.7938C59.9927 91.8399 62.2123 92.5781 64.0685 91.9383L61.4154 73.8398C60.7849 69.9094 56.599 70.1695 56.599 70.1695L59.2099 89.7938ZM56.9763 105.834L53.2451 78.1172C52.617 74.4117 50.6412 72.1523 47.6529 72.1523L51.7779 102.961C52.556 104.906 54.7076 106.238 56.9763 105.834ZM43.1716 109.973C43.6662 113.234 46.4037 114.478 48.8482 114.002L43.9029 77.1375C43.1341 73.207 41.0482 71.1914 37.9615 70.7063L43.1716 109.973ZM20.3131 77.8055C19.6427 81.8133 21.3724 82.0899 21.3724 82.0899C21.4615 82.0172 26.6927 79.3945 27.131 72.5461C27.131 66.9797 26.1115 63.3914 26.1115 63.3914L29.1091 65.625L33.5388 101.979C34.1248 106.641 38.2732 106.013 38.2732 106.013C38.2732 106.013 33.0771 65.5031 31.8748 62.6203C30.1357 60.1031 29.4373 54.4664 29.7677 51.2391C29.7677 44.6039 36.7615 39.7266 38.9599 37.3828C39.5107 36.7969 39.5834 36.1313 39.5834 35.3625V18.75H28.1224C26.0716 19.0242 24.5857 20.8008 24.8623 22.8516L26.2732 37.9125C25.399 41.9883 20.7138 46.3523 19.8607 51.2414C19.0873 55.6828 20.5966 58.6547 21.0115 67.8586C21.3302 74.8945 20.9834 73.7906 20.3131 77.8055Z" fill="#4B322A"/>
<path d="M67.0288 89.6062C66.4054 90.7312 65.2827 91.5328 64.064 91.9008L61.4155 73.8398C60.7851 69.9094 56.5991 70.1695 56.5991 70.1695L60.7851 101.545C60.4429 106.685 56.9765 105.834 56.9765 105.834L53.2452 78.1172C52.6194 74.4117 50.6413 72.1523 47.653 72.1523L52.5679 108.93C52.8632 111.766 50.9929 113.52 48.8437 113.96L43.9054 77.1375C43.1366 73.207 41.0507 71.1914 37.964 70.7062L42.3069 103.43C41.2687 105.398 38.9741 106.35 36.9819 105.973C37.7155 106.095 38.278 106.015 38.278 106.015C38.278 106.015 33.0819 65.5055 31.8796 62.6227C30.1405 60.1055 29.4421 54.4688 29.7726 51.2414C29.7726 44.6063 36.7663 39.7289 38.9647 37.3852C39.5155 36.7992 39.5882 36.1336 39.5882 35.3648V18.7523H50.6718C52.9921 18.8977 54.9257 20.2805 55.1882 22.3406C56.3601 31.9336 56.2827 32.5617 56.8405 33.8695C58.0218 36.6445 62.4772 39.1406 64.6382 47.468C66.1593 53.3297 65.1936 59.2758 65.5522 65.2313C65.5476 65.2313 68.8147 86.3836 67.0288 89.6062ZM29.1093 65.625L26.114 63.3914C26.114 63.3914 27.1335 66.9797 27.1335 72.5461C26.6929 79.3945 21.4616 82.0148 21.3726 82.0898C21.3726 82.0898 29.6882 83.2758 30.3304 75.6305C29.6366 69.9586 29.1093 65.625 29.1093 65.625ZM97.9593 102.961L102.084 72.1523C99.096 72.1523 97.1179 74.4141 96.4921 78.1172L92.7608 105.834C95.0319 106.237 97.1835 104.906 97.9593 102.961ZM111.778 70.7039C108.691 71.1914 106.603 73.2047 105.837 77.1352L100.891 114C103.336 114.476 106.073 113.231 106.568 109.971L111.778 70.7039ZM93.1382 70.1719C93.1382 70.1719 88.9522 69.9094 88.3218 73.8422L85.6686 91.9406C87.5249 92.5781 89.7468 91.8422 90.5272 89.7961L93.1382 70.1719ZM128.726 67.8586C129.143 58.6547 130.652 55.6828 129.876 51.2414C129.023 46.3523 124.338 41.9883 123.464 37.9125L124.875 22.8516C125.154 20.8008 123.668 19.0242 121.617 18.75H110.156V35.3625C110.156 36.1313 110.229 36.7969 110.78 37.3828C112.978 39.7266 119.972 44.6062 119.972 51.2391C120.305 54.4664 119.604 60.1031 117.865 62.6203C116.662 65.5031 111.466 106.012 111.466 106.012C111.466 106.012 115.615 106.641 116.201 101.979C116.201 101.979 120.63 65.6297 120.63 65.625L123.626 63.3914C123.626 63.3914 122.606 66.9797 122.606 72.5461C123.047 79.3945 128.278 82.0148 128.365 82.0898C128.365 82.0898 130.092 81.8109 129.424 77.8055C128.754 73.7906 128.409 74.8945 128.726 67.8586Z" fill="#644638"/>
<path d="M44.7231 60.4829L50.9949 57.3024C52.4317 56.5735 53.0106 54.8016 52.284 53.3649L52.0192 52.8423C51.2903 51.4055 49.5184 50.8266 48.0817 51.5532L41.8098 54.7337C40.3731 55.4626 39.7942 57.2344 40.5207 58.6712L40.7856 59.1938C41.5145 60.6305 43.2863 61.2118 44.7231 60.4829Z" fill="#FF786E"/>
<path d="M48.8718 56.461C50.3085 55.7321 50.8874 53.9603 50.1585 52.5235C49.8937 52.0009 49.746 51.6423 49.3358 51.2415C50.428 51.2204 51.4921 51.8087 52.0171 52.8446L52.2819 53.3673C53.0108 54.804 52.4319 56.5759 50.9952 57.3048L44.7233 60.4853C43.5749 61.0665 42.2155 60.8134 41.3413 59.9579C42.4405 59.9321 47.796 57.0048 48.8718 56.461Z" fill="#BE5652"/>
<path d="M105.014 60.4829L98.7419 57.3024C97.3052 56.5735 96.7263 54.8016 97.4528 53.3649L97.7177 52.8423C98.4466 51.4055 100.218 50.8266 101.655 51.5532L107.927 54.7337C109.364 55.4626 109.943 57.2344 109.216 58.6712L108.951 59.1938C108.222 60.6305 106.451 61.2118 105.014 60.4829Z" fill="#6BC4D2"/>
<path d="M100.868 56.461C99.4312 55.7321 98.8523 53.9603 99.5812 52.5235C99.8461 52.0009 99.9937 51.6423 100.404 51.2415C99.3117 51.2204 98.2476 51.8087 97.7226 52.8446L97.4578 53.3673C96.7289 54.804 97.3078 56.5759 98.7445 57.3048L105.016 60.4853C106.165 61.0665 107.524 60.8134 108.398 59.9579C107.299 59.9321 101.944 57.0048 100.868 56.461Z" fill="#508D9B"/>
</svg>
