<svg width="200" height="200" viewBox="0 0 200 200" fill="none" xmlns="http://www.w3.org/2000/svg">
<path opacity="0.5" d="M183.333 100C183.333 146.023 146.023 183.333 100 183.333C53.9763 183.333 16.6667 146.023 16.6667 100C16.6667 53.9763 53.9763 16.6667 100 16.6667C146.023 16.6667 183.333 53.9763 183.333 100Z" fill="#77F3A4"/>
<path d="M140.058 158.427C128.665 166.253 114.868 170.833 100 170.833C85.1326 170.833 71.3353 166.252 59.9417 158.426C54.9096 154.969 52.7591 148.385 55.685 143.027C61.7501 131.918 74.2478 125 100 125C125.753 125 138.25 131.919 144.315 143.027C147.241 148.385 145.09 154.97 140.058 158.427Z" fill="#1C274C"/>
<path d="M99.9999 100C113.807 100 125 88.8075 125 75C125 61.1929 113.807 50 99.9999 50C86.1932 50 75.0002 61.1929 75.0002 75C75.0002 88.8075 86.1932 100 99.9999 100Z" fill="#1C274C"/>
</svg>
