<svg width="347" height="81" viewBox="0 0 347 81" fill="none" xmlns="http://www.w3.org/2000/svg">
<path d="M38 78C57.33 78 73 62.33 73 43C73 23.67 57.33 8 38 8C18.67 8 3 23.67 3 43C3 62.33 18.67 78 38 78Z" stroke="#29C831" stroke-width="5"/>
<path d="M12 43C12 36.1044 14.7393 29.4912 19.6152 24.6152C24.4912 19.7393 31.1044 17 38 17C44.8956 17 51.5088 19.7393 56.3848 24.6152C61.2607 29.4912 64 36.1044 64 43" stroke="#29C831" stroke-width="3" stroke-dasharray="2 2"/>
<path d="M38 55C44.6274 55 50 49.6274 50 43C50 36.3726 44.6274 31 38 31C31.3726 31 26 36.3726 26 43C26 49.6274 31.3726 55 38 55Z" fill="#77F3A4" stroke="#29C831" stroke-width="3"/>
<mask id="path-4-inside-1_42_89" fill="white">
<path d="M79.7045 17.1761V11.0909H108.375V17.1761H97.6875V46H90.392V17.1761H79.7045ZM110.241 46V19.8182H117.281V24.3864H117.554C118.031 22.7614 118.832 21.5341 119.957 20.7045C121.082 19.8636 122.378 19.4432 123.844 19.4432C124.207 19.4432 124.599 19.4659 125.02 19.5114C125.44 19.5568 125.81 19.6193 126.128 19.6989V26.142C125.787 26.0398 125.315 25.9489 124.713 25.8693C124.111 25.7898 123.56 25.75 123.06 25.75C121.991 25.75 121.037 25.983 120.196 26.4489C119.366 26.9034 118.707 27.5398 118.219 28.358C117.741 29.1761 117.503 30.1193 117.503 31.1875V46H110.241ZM136.598 46.4943C134.928 46.4943 133.439 46.2045 132.132 45.625C130.825 45.0341 129.791 44.1648 129.03 43.017C128.28 41.858 127.905 40.4148 127.905 38.6875C127.905 37.233 128.172 36.0114 128.706 35.0227C129.24 34.0341 129.967 33.2386 130.888 32.6364C131.808 32.0341 132.854 31.5795 134.024 31.2727C135.206 30.9659 136.445 30.75 137.74 30.625C139.263 30.4659 140.49 30.3182 141.422 30.1818C142.354 30.0341 143.03 29.8182 143.45 29.5341C143.871 29.25 144.081 28.8295 144.081 28.2727V28.1705C144.081 27.0909 143.74 26.2557 143.058 25.6648C142.388 25.0739 141.433 24.7784 140.195 24.7784C138.888 24.7784 137.848 25.0682 137.075 25.6477C136.303 26.2159 135.791 26.9318 135.541 27.7955L128.825 27.25C129.166 25.6591 129.837 24.2841 130.837 23.125C131.837 21.9545 133.126 21.0568 134.706 20.4318C136.297 19.7955 138.138 19.4773 140.229 19.4773C141.683 19.4773 143.075 19.6477 144.405 19.9886C145.746 20.3295 146.933 20.858 147.967 21.5739C149.013 22.2898 149.837 23.2102 150.439 24.3352C151.041 25.4489 151.342 26.7841 151.342 28.3409V46H144.456V42.3693H144.251C143.831 43.1875 143.268 43.9091 142.564 44.5341C141.859 45.1477 141.013 45.6307 140.024 45.983C139.036 46.3239 137.893 46.4943 136.598 46.4943ZM138.678 41.483C139.746 41.483 140.689 41.2727 141.507 40.8523C142.325 40.4205 142.967 39.8409 143.433 39.1136C143.899 38.3864 144.132 37.5625 144.132 36.642V33.8636C143.905 34.0114 143.592 34.1477 143.195 34.2727C142.808 34.3864 142.371 34.4943 141.882 34.5966C141.393 34.6875 140.905 34.7727 140.416 34.8523C139.928 34.9205 139.484 34.983 139.087 35.0398C138.234 35.1648 137.49 35.3636 136.854 35.6364C136.217 35.9091 135.723 36.2784 135.371 36.7443C135.018 37.1989 134.842 37.767 134.842 38.4489C134.842 39.4375 135.2 40.1932 135.916 40.7159C136.643 41.2273 137.564 41.483 138.678 41.483ZM178.76 27.2841L172.112 27.6932C171.999 27.125 171.754 26.6136 171.379 26.1591C171.004 25.6932 170.51 25.3239 169.896 25.0511C169.294 24.767 168.572 24.625 167.732 24.625C166.607 24.625 165.658 24.8636 164.885 25.3409C164.112 25.8068 163.726 26.4318 163.726 27.2159C163.726 27.8409 163.976 28.3693 164.476 28.8011C164.976 29.233 165.834 29.5795 167.05 29.8409L171.788 30.7955C174.334 31.3182 176.232 32.1591 177.482 33.3182C178.732 34.4773 179.357 36 179.357 37.8864C179.357 39.6023 178.851 41.108 177.839 42.4034C176.839 43.6989 175.464 44.7102 173.714 45.4375C171.976 46.1534 169.97 46.5114 167.697 46.5114C164.232 46.5114 161.47 45.7898 159.413 44.3466C157.368 42.892 156.169 40.9148 155.817 38.4148L162.959 38.0398C163.175 39.0966 163.697 39.9034 164.527 40.4602C165.357 41.0057 166.419 41.2784 167.714 41.2784C168.987 41.2784 170.01 41.0341 170.783 40.5455C171.567 40.0455 171.964 39.4034 171.976 38.6193C171.964 37.9602 171.686 37.4205 171.141 37C170.595 36.5682 169.754 36.2386 168.618 36.0114L164.084 35.108C161.527 34.5966 159.624 33.7102 158.374 32.4489C157.135 31.1875 156.516 29.5795 156.516 27.625C156.516 25.9432 156.97 24.4943 157.879 23.2784C158.8 22.0625 160.089 21.125 161.749 20.4659C163.419 19.8068 165.374 19.4773 167.612 19.4773C170.919 19.4773 173.521 20.1761 175.419 21.5739C177.328 22.9716 178.442 24.875 178.76 27.2841ZM191.19 30.8636V46H183.929V11.0909H190.986V24.4375H191.293C191.884 22.892 192.838 21.6818 194.156 20.8068C195.474 19.9205 197.128 19.4773 199.116 19.4773C200.935 19.4773 202.52 19.875 203.872 20.6705C205.236 21.4545 206.293 22.5852 207.043 24.0625C207.804 25.5284 208.179 27.2841 208.168 29.3295V46H200.906V30.625C200.918 29.0114 200.509 27.7557 199.679 26.858C198.861 25.9602 197.713 25.5114 196.236 25.5114C195.247 25.5114 194.372 25.7216 193.611 26.142C192.861 26.5625 192.27 27.1761 191.838 27.983C191.418 28.7784 191.202 29.7386 191.19 30.8636Z"/>
</mask>
<path d="M79.7045 17.1761V11.0909H108.375V17.1761H97.6875V46H90.392V17.1761H79.7045ZM110.241 46V19.8182H117.281V24.3864H117.554C118.031 22.7614 118.832 21.5341 119.957 20.7045C121.082 19.8636 122.378 19.4432 123.844 19.4432C124.207 19.4432 124.599 19.4659 125.02 19.5114C125.44 19.5568 125.81 19.6193 126.128 19.6989V26.142C125.787 26.0398 125.315 25.9489 124.713 25.8693C124.111 25.7898 123.56 25.75 123.06 25.75C121.991 25.75 121.037 25.983 120.196 26.4489C119.366 26.9034 118.707 27.5398 118.219 28.358C117.741 29.1761 117.503 30.1193 117.503 31.1875V46H110.241ZM136.598 46.4943C134.928 46.4943 133.439 46.2045 132.132 45.625C130.825 45.0341 129.791 44.1648 129.03 43.017C128.28 41.858 127.905 40.4148 127.905 38.6875C127.905 37.233 128.172 36.0114 128.706 35.0227C129.24 34.0341 129.967 33.2386 130.888 32.6364C131.808 32.0341 132.854 31.5795 134.024 31.2727C135.206 30.9659 136.445 30.75 137.74 30.625C139.263 30.4659 140.49 30.3182 141.422 30.1818C142.354 30.0341 143.03 29.8182 143.45 29.5341C143.871 29.25 144.081 28.8295 144.081 28.2727V28.1705C144.081 27.0909 143.74 26.2557 143.058 25.6648C142.388 25.0739 141.433 24.7784 140.195 24.7784C138.888 24.7784 137.848 25.0682 137.075 25.6477C136.303 26.2159 135.791 26.9318 135.541 27.7955L128.825 27.25C129.166 25.6591 129.837 24.2841 130.837 23.125C131.837 21.9545 133.126 21.0568 134.706 20.4318C136.297 19.7955 138.138 19.4773 140.229 19.4773C141.683 19.4773 143.075 19.6477 144.405 19.9886C145.746 20.3295 146.933 20.858 147.967 21.5739C149.013 22.2898 149.837 23.2102 150.439 24.3352C151.041 25.4489 151.342 26.7841 151.342 28.3409V46H144.456V42.3693H144.251C143.831 43.1875 143.268 43.9091 142.564 44.5341C141.859 45.1477 141.013 45.6307 140.024 45.983C139.036 46.3239 137.893 46.4943 136.598 46.4943ZM138.678 41.483C139.746 41.483 140.689 41.2727 141.507 40.8523C142.325 40.4205 142.967 39.8409 143.433 39.1136C143.899 38.3864 144.132 37.5625 144.132 36.642V33.8636C143.905 34.0114 143.592 34.1477 143.195 34.2727C142.808 34.3864 142.371 34.4943 141.882 34.5966C141.393 34.6875 140.905 34.7727 140.416 34.8523C139.928 34.9205 139.484 34.983 139.087 35.0398C138.234 35.1648 137.49 35.3636 136.854 35.6364C136.217 35.9091 135.723 36.2784 135.371 36.7443C135.018 37.1989 134.842 37.767 134.842 38.4489C134.842 39.4375 135.2 40.1932 135.916 40.7159C136.643 41.2273 137.564 41.483 138.678 41.483ZM178.76 27.2841L172.112 27.6932C171.999 27.125 171.754 26.6136 171.379 26.1591C171.004 25.6932 170.51 25.3239 169.896 25.0511C169.294 24.767 168.572 24.625 167.732 24.625C166.607 24.625 165.658 24.8636 164.885 25.3409C164.112 25.8068 163.726 26.4318 163.726 27.2159C163.726 27.8409 163.976 28.3693 164.476 28.8011C164.976 29.233 165.834 29.5795 167.05 29.8409L171.788 30.7955C174.334 31.3182 176.232 32.1591 177.482 33.3182C178.732 34.4773 179.357 36 179.357 37.8864C179.357 39.6023 178.851 41.108 177.839 42.4034C176.839 43.6989 175.464 44.7102 173.714 45.4375C171.976 46.1534 169.97 46.5114 167.697 46.5114C164.232 46.5114 161.47 45.7898 159.413 44.3466C157.368 42.892 156.169 40.9148 155.817 38.4148L162.959 38.0398C163.175 39.0966 163.697 39.9034 164.527 40.4602C165.357 41.0057 166.419 41.2784 167.714 41.2784C168.987 41.2784 170.01 41.0341 170.783 40.5455C171.567 40.0455 171.964 39.4034 171.976 38.6193C171.964 37.9602 171.686 37.4205 171.141 37C170.595 36.5682 169.754 36.2386 168.618 36.0114L164.084 35.108C161.527 34.5966 159.624 33.7102 158.374 32.4489C157.135 31.1875 156.516 29.5795 156.516 27.625C156.516 25.9432 156.97 24.4943 157.879 23.2784C158.8 22.0625 160.089 21.125 161.749 20.4659C163.419 19.8068 165.374 19.4773 167.612 19.4773C170.919 19.4773 173.521 20.1761 175.419 21.5739C177.328 22.9716 178.442 24.875 178.76 27.2841ZM191.19 30.8636V46H183.929V11.0909H190.986V24.4375H191.293C191.884 22.892 192.838 21.6818 194.156 20.8068C195.474 19.9205 197.128 19.4773 199.116 19.4773C200.935 19.4773 202.52 19.875 203.872 20.6705C205.236 21.4545 206.293 22.5852 207.043 24.0625C207.804 25.5284 208.179 27.2841 208.168 29.3295V46H200.906V30.625C200.918 29.0114 200.509 27.7557 199.679 26.858C198.861 25.9602 197.713 25.5114 196.236 25.5114C195.247 25.5114 194.372 25.7216 193.611 26.142C192.861 26.5625 192.27 27.1761 191.838 27.983C191.418 28.7784 191.202 29.7386 191.19 30.8636Z" fill="white"/>
<path d="M79.7045 17.1761H78.5045V18.3761H79.7045V17.1761ZM79.7045 11.0909V9.89091H78.5045V11.0909H79.7045ZM108.375 11.0909H109.575V9.89091H108.375V11.0909ZM108.375 17.1761V18.3761H109.575V17.1761H108.375ZM97.6875 17.1761V15.9761H96.4875V17.1761H97.6875ZM97.6875 46V47.2H98.8875V46H97.6875ZM90.392 46H89.192V47.2H90.392V46ZM90.392 17.1761H91.592V15.9761H90.392V17.1761ZM79.7045 17.1761H80.9045V11.0909H79.7045H78.5045V17.1761H79.7045ZM79.7045 11.0909V12.2909H108.375V11.0909V9.89091H79.7045V11.0909ZM108.375 11.0909H107.175V17.1761H108.375H109.575V11.0909H108.375ZM108.375 17.1761V15.9761H97.6875V17.1761V18.3761H108.375V17.1761ZM97.6875 17.1761H96.4875V46H97.6875H98.8875V17.1761H97.6875ZM97.6875 46V44.8H90.392V46V47.2H97.6875V46ZM90.392 46H91.592V17.1761H90.392H89.192V46H90.392ZM90.392 17.1761V15.9761H79.7045V17.1761V18.3761H90.392V17.1761ZM110.241 46H109.041V47.2H110.241V46ZM110.241 19.8182V18.6182H109.041V19.8182H110.241ZM117.281 19.8182H118.481V18.6182H117.281V19.8182ZM117.281 24.3864H116.081V25.5864H117.281V24.3864ZM117.554 24.3864V25.5864H118.452L118.705 24.7245L117.554 24.3864ZM119.957 20.7045L120.67 21.6704L120.676 21.6657L119.957 20.7045ZM125.02 19.5114L125.149 18.3183L125.149 18.3183L125.02 19.5114ZM126.128 19.6989H127.328V18.7619L126.419 18.5347L126.128 19.6989ZM126.128 26.142L125.783 27.2914L127.328 27.7549V26.142H126.128ZM120.196 26.4489L120.773 27.5012L120.778 27.4985L120.196 26.4489ZM118.219 28.358L117.188 27.7426L117.182 27.7533L118.219 28.358ZM117.503 46V47.2H118.703V46H117.503ZM110.241 46H111.441V19.8182H110.241H109.041V46H110.241ZM110.241 19.8182V21.0182H117.281V19.8182V18.6182H110.241V19.8182ZM117.281 19.8182H116.081V24.3864H117.281H118.481V19.8182H117.281ZM117.281 24.3864V25.5864H117.554V24.3864V23.1864H117.281V24.3864ZM117.554 24.3864L118.705 24.7245C119.125 23.2964 119.797 22.3136 120.67 21.6704L119.957 20.7045L119.245 19.7387C117.867 20.7546 116.938 22.2263 116.403 24.0482L117.554 24.3864ZM119.957 20.7045L120.676 21.6657C121.584 20.9869 122.625 20.6432 123.844 20.6432V19.4432V18.2432C122.131 18.2432 120.581 18.7403 119.239 19.7434L119.957 20.7045ZM123.844 19.4432V20.6432C124.158 20.6432 124.507 20.6629 124.891 20.7044L125.02 19.5114L125.149 18.3183C124.692 18.269 124.257 18.2432 123.844 18.2432V19.4432ZM125.02 19.5114L124.891 20.7044C125.271 20.7456 125.585 20.8 125.837 20.863L126.128 19.6989L126.419 18.5347C126.035 18.4387 125.609 18.3681 125.149 18.3183L125.02 19.5114ZM126.128 19.6989H124.928V26.142H126.128H127.328V19.6989H126.128ZM126.128 26.142L126.473 24.9927C126.042 24.8636 125.498 24.7626 124.87 24.6796L124.713 25.8693L124.556 27.059C125.132 27.1351 125.532 27.216 125.783 27.2914L126.128 26.142ZM124.713 25.8693L124.87 24.6796C124.226 24.5946 123.622 24.55 123.06 24.55V25.75V26.95C123.497 26.95 123.995 26.9849 124.556 27.059L124.713 25.8693ZM123.06 25.75V24.55C121.811 24.55 120.652 24.8241 119.614 25.3992L120.196 26.4489L120.778 27.4985C121.421 27.1418 122.172 26.95 123.06 26.95V25.75ZM120.196 26.4489L119.619 25.3965C118.601 25.9545 117.786 26.7424 117.188 27.7427L118.219 28.358L119.249 28.9732C119.629 28.3371 120.132 27.8523 120.773 27.5012L120.196 26.4489ZM118.219 28.358L117.182 27.7533C116.585 28.7775 116.303 29.9346 116.303 31.1875H117.503H118.703C118.703 30.3041 118.898 29.5747 119.255 28.9626L118.219 28.358ZM117.503 31.1875H116.303V46H117.503H118.703V31.1875H117.503ZM117.503 46V44.8H110.241V46V47.2H117.503V46ZM132.132 45.625L131.638 46.7184L131.646 46.722L132.132 45.625ZM129.03 43.017L128.022 43.669L128.03 43.6804L129.03 43.017ZM128.706 35.0227L127.65 34.4524L127.65 34.4524L128.706 35.0227ZM130.888 32.6364L130.231 31.6322L130.231 31.6322L130.888 32.6364ZM134.024 31.2727L133.723 30.1112L133.72 30.1119L134.024 31.2727ZM137.74 30.625L137.855 31.8195L137.865 31.8185L137.74 30.625ZM141.422 30.1818L141.596 31.3692L141.603 31.3681L141.61 31.367L141.422 30.1818ZM143.45 29.5341L142.778 28.5398L142.778 28.5398L143.45 29.5341ZM143.058 25.6648L142.265 26.5651L142.272 26.5716L143.058 25.6648ZM137.075 25.6477L137.786 26.6146L137.795 26.6077L137.075 25.6477ZM135.541 27.7955L135.444 28.9915L136.421 29.0709L136.694 28.1291L135.541 27.7955ZM128.825 27.25L127.652 26.9986L127.365 28.3354L128.728 28.4461L128.825 27.25ZM130.837 23.125L131.745 23.9089L131.749 23.9045L130.837 23.125ZM134.706 20.4318L135.147 21.5476L135.152 21.546L134.706 20.4318ZM144.405 19.9886L144.107 21.151L144.109 21.1516L144.405 19.9886ZM147.967 21.5739L147.284 22.5605L147.289 22.564L147.967 21.5739ZM150.439 24.3352L149.381 24.9016L149.383 24.9061L150.439 24.3352ZM151.342 46V47.2H152.542V46H151.342ZM144.456 46H143.256V47.2H144.456V46ZM144.456 42.3693H145.656V41.1693H144.456V42.3693ZM144.251 42.3693V41.1693H143.519L143.184 41.8208L144.251 42.3693ZM142.564 44.5341L143.352 45.439L143.36 45.4318L142.564 44.5341ZM140.024 45.983L140.415 47.1175L140.427 47.1133L140.024 45.983ZM141.507 40.8523L142.056 41.9197L142.067 41.9135L141.507 40.8523ZM143.433 39.1136L142.423 38.4663L142.423 38.4663L143.433 39.1136ZM144.132 33.8636H145.332V31.6524L143.478 32.8575L144.132 33.8636ZM143.195 34.2727L143.533 35.424L143.544 35.4208L143.554 35.4175L143.195 34.2727ZM141.882 34.5966L142.102 35.7763L142.115 35.7739L142.128 35.7711L141.882 34.5966ZM140.416 34.8523L140.582 36.0408L140.596 36.0389L140.609 36.0367L140.416 34.8523ZM139.087 35.0398L138.917 33.8518L138.913 33.8525L139.087 35.0398ZM136.854 35.6364L137.326 36.7393L137.326 36.7393L136.854 35.6364ZM135.371 36.7443L136.319 37.4794L136.324 37.4738L136.328 37.468L135.371 36.7443ZM135.916 40.7159L135.209 41.6851L135.217 41.6914L135.226 41.6975L135.916 40.7159ZM136.598 46.4943V45.2943C135.067 45.2943 133.749 45.0292 132.619 44.528L132.132 45.625L131.646 46.722C133.129 47.3799 134.788 47.6943 136.598 47.6943V46.4943ZM132.132 45.625L132.627 44.5316C131.516 44.0296 130.661 43.3054 130.03 42.3537L129.03 43.017L128.03 43.6804C128.921 45.0242 130.134 46.0386 131.638 46.7184L132.132 45.625ZM129.03 43.017L130.037 42.3651C129.441 41.4438 129.105 40.2415 129.105 38.6875H127.905H126.705C126.705 40.5881 127.119 42.2721 128.022 43.6689L129.03 43.017ZM127.905 38.6875H129.105C129.105 37.3751 129.346 36.3625 129.762 35.5931L128.706 35.0227L127.65 34.4524C126.998 35.6603 126.705 37.0908 126.705 38.6875H127.905ZM128.706 35.0227L129.762 35.5931C130.203 34.776 130.795 34.1311 131.545 33.6405L130.888 32.6364L130.231 31.6322C129.14 32.3461 128.277 33.2922 127.65 34.4524L128.706 35.0227ZM130.888 32.6364L131.545 33.6405C132.347 33.1159 133.271 32.7108 134.328 32.4335L134.024 31.2727L133.72 30.1119C132.437 30.4483 131.27 30.9523 130.231 31.6322L130.888 32.6364ZM134.024 31.2727L134.326 32.4342C135.443 32.1443 136.619 31.9388 137.855 31.8195L137.74 30.625L137.625 29.4305C136.271 29.5612 134.969 29.7875 133.723 30.1112L134.024 31.2727ZM137.74 30.625L137.865 31.8185C139.395 31.6586 140.641 31.5089 141.596 31.3692L141.422 30.1818L141.248 28.9945C140.339 29.1274 139.13 29.2732 137.615 29.4315L137.74 30.625ZM141.422 30.1818L141.61 31.367C142.591 31.2115 143.479 30.9627 144.122 30.5284L143.45 29.5341L142.778 28.5398C142.58 28.6737 142.116 28.8567 141.234 28.9966L141.422 30.1818ZM143.45 29.5341L144.122 30.5284C144.909 29.9967 145.281 29.1825 145.281 28.2727H144.081H142.881C142.881 28.399 142.858 28.4535 142.85 28.469C142.844 28.4802 142.832 28.5038 142.778 28.5398L143.45 29.5341ZM144.081 28.2727H145.281V28.1705H144.081H142.881V28.2727H144.081ZM144.081 28.1705H145.281C145.281 26.8179 144.841 25.6217 143.844 24.7579L143.058 25.6648L142.272 26.5716C142.639 26.8897 142.881 27.3639 142.881 28.1705H144.081ZM143.058 25.6648L143.852 24.7645C142.89 23.917 141.613 23.5784 140.195 23.5784V24.7784V25.9784C141.254 25.9784 141.885 26.2307 142.265 26.565L143.058 25.6648ZM140.195 24.7784V23.5784C138.719 23.5784 137.398 23.9056 136.355 24.6877L137.075 25.6477L137.795 26.6077C138.298 26.2307 139.057 25.9784 140.195 25.9784V24.7784ZM137.075 25.6477L136.364 24.6809C135.394 25.3946 134.717 26.3267 134.389 27.4618L135.541 27.7955L136.694 28.1291C136.865 27.537 137.211 27.0372 137.786 26.6145L137.075 25.6477ZM135.541 27.7955L135.638 26.5994L128.922 26.0539L128.825 27.25L128.728 28.4461L135.444 28.9915L135.541 27.7955ZM128.825 27.25L129.999 27.5014C130.3 26.0946 130.885 24.9059 131.745 23.9089L130.837 23.125L129.928 22.3411C128.788 23.6623 128.032 25.2235 127.652 26.9986L128.825 27.25ZM130.837 23.125L131.749 23.9045C132.609 22.8978 133.731 22.1082 135.147 21.5476L134.706 20.4318L134.264 19.316C132.522 20.0054 131.064 21.0113 129.924 22.3455L130.837 23.125ZM134.706 20.4318L135.152 21.546C136.573 20.9773 138.258 20.6773 140.229 20.6773V19.4773V18.2773C138.018 18.2773 136.02 18.6136 134.26 19.3176L134.706 20.4318ZM140.229 19.4773V20.6773C141.589 20.6773 142.88 20.8365 144.107 21.151L144.405 19.9886L144.703 18.8262C143.27 18.4589 141.778 18.2773 140.229 18.2773V19.4773ZM144.405 19.9886L144.109 21.1516C145.325 21.4608 146.379 21.9337 147.284 22.5605L147.967 21.5739L148.65 20.5872C147.488 19.7822 146.166 19.1983 144.701 18.8256L144.405 19.9886ZM147.967 21.5739L147.289 22.564C148.175 23.1703 148.869 23.945 149.381 24.9016L150.439 24.3352L151.497 23.7689C150.804 22.4754 149.851 21.4092 148.645 20.5838L147.967 21.5739ZM150.439 24.3352L149.383 24.9061C149.871 25.8085 150.142 26.9382 150.142 28.3409H151.342H152.542C152.542 26.63 152.211 25.0892 151.494 23.7644L150.439 24.3352ZM151.342 28.3409H150.142V46H151.342H152.542V28.3409H151.342ZM151.342 46V44.8H144.456V46V47.2H151.342V46ZM144.456 46H145.656V42.3693H144.456H143.256V46H144.456ZM144.456 42.3693V41.1693H144.251V42.3693V43.5693H144.456V42.3693ZM144.251 42.3693L143.184 41.8208C142.833 42.5037 142.364 43.1076 141.768 43.6364L142.564 44.5341L143.36 45.4318C144.173 44.7106 144.829 43.8713 145.319 42.9178L144.251 42.3693ZM142.564 44.5341L141.776 43.6292C141.198 44.1328 140.486 44.5445 139.621 44.8526L140.024 45.983L140.427 47.1133C141.54 46.7169 142.521 46.1627 143.352 45.439L142.564 44.5341ZM140.024 45.983L139.633 44.8485C138.796 45.1371 137.791 45.2943 136.598 45.2943V46.4943V47.6943C137.996 47.6943 139.275 47.5107 140.415 47.1174L140.024 45.983ZM138.678 41.483V42.683C139.906 42.683 141.042 42.4403 142.056 41.9196L141.507 40.8523L140.959 39.785C140.336 40.1051 139.586 40.283 138.678 40.283V41.483ZM141.507 40.8523L142.067 41.9135C143.055 41.3921 143.858 40.6752 144.444 39.7609L143.433 39.1136L142.423 38.4663C142.077 39.0066 141.595 39.4488 140.947 39.791L141.507 40.8523ZM143.433 39.1136L144.444 39.7609C145.042 38.8276 145.332 37.7762 145.332 36.642H144.132H142.932C142.932 37.3488 142.757 37.9451 142.423 38.4663L143.433 39.1136ZM144.132 36.642H145.332V33.8636H144.132H142.932V36.642H144.132ZM144.132 33.8636L143.478 32.8575C143.377 32.9231 143.178 33.0201 142.835 33.1279L143.195 34.2727L143.554 35.4175C144.007 35.2754 144.432 35.0997 144.786 34.8698L144.132 33.8636ZM143.195 34.2727L142.856 33.1215C142.506 33.2243 142.101 33.3248 141.636 33.422L141.882 34.5966L142.128 35.7711C142.641 35.6638 143.11 35.5484 143.533 35.424L143.195 34.2727ZM141.882 34.5966L141.663 33.4168C141.183 33.5061 140.703 33.5898 140.223 33.6679L140.416 34.8523L140.609 36.0367C141.107 35.9557 141.604 35.8689 142.102 35.7763L141.882 34.5966ZM140.416 34.8523L140.25 33.6638C139.761 33.7321 139.316 33.7948 138.917 33.8518L139.087 35.0398L139.256 36.2277C139.653 36.1711 140.094 36.1088 140.582 36.0408L140.416 34.8523ZM139.087 35.0398L138.913 33.8525C137.981 33.989 137.133 34.2112 136.381 34.5334L136.854 35.6364L137.326 36.7393C137.847 36.516 138.487 36.3405 139.261 36.2271L139.087 35.0398ZM136.854 35.6364L136.381 34.5334C135.589 34.873 134.913 35.3599 134.414 36.0206L135.371 36.7443L136.328 37.468C136.533 37.1969 136.846 36.9452 137.326 36.7393L136.854 35.6364ZM135.371 36.7443L134.422 36.0092C133.878 36.7113 133.642 37.5521 133.642 38.4489H134.842H136.042C136.042 37.982 136.159 37.6864 136.319 37.4794L135.371 36.7443ZM134.842 38.4489H133.642C133.642 39.7696 134.144 40.9079 135.209 41.6851L135.916 40.7159L136.624 39.7468C136.256 39.4785 136.042 39.1054 136.042 38.4489H134.842ZM135.916 40.7159L135.226 41.6975C136.201 42.3833 137.38 42.683 138.678 42.683V41.483V40.283C137.748 40.283 137.086 40.0712 136.606 39.7343L135.916 40.7159ZM178.76 27.2841L178.834 28.4818L180.118 28.4028L179.95 27.127L178.76 27.2841ZM172.112 27.6932L170.936 27.9285L171.141 28.9552L172.186 28.8909L172.112 27.6932ZM171.379 26.1591L170.444 26.9115L170.449 26.9172L170.454 26.9228L171.379 26.1591ZM169.896 25.0511L169.384 26.1365L169.397 26.1422L169.409 26.1477L169.896 25.0511ZM164.885 25.3409L165.505 26.3686L165.516 26.3619L164.885 25.3409ZM164.476 28.8011L163.692 29.7093L163.692 29.7093L164.476 28.8011ZM167.05 29.8409L166.798 31.0141L166.805 31.0157L166.813 31.0173L167.05 29.8409ZM171.788 30.7955L172.03 29.62L172.025 29.6191L171.788 30.7955ZM177.482 33.3182L176.666 34.1981L176.666 34.1981L177.482 33.3182ZM177.839 42.4034L176.894 41.6649L176.89 41.6701L177.839 42.4034ZM173.714 45.4375L174.171 46.5471L174.175 46.5456L173.714 45.4375ZM159.413 44.3466L158.718 45.3246L158.724 45.3289L159.413 44.3466ZM155.817 38.4148L155.754 37.2164L154.446 37.2851L154.629 38.5822L155.817 38.4148ZM162.959 38.0398L164.135 37.7996L163.928 36.7872L162.896 36.8414L162.959 38.0398ZM164.527 40.4602L163.858 41.4566L163.868 41.4629L164.527 40.4602ZM170.783 40.5455L171.424 41.5597L171.428 41.5572L170.783 40.5455ZM171.976 38.6193L173.176 38.6367L173.176 38.6177L173.176 38.5986L171.976 38.6193ZM171.141 37L170.396 37.9409L170.402 37.9457L170.408 37.9504L171.141 37ZM168.618 36.0114L168.853 34.8347L168.852 34.8345L168.618 36.0114ZM164.084 35.108L163.848 36.2847L163.849 36.2848L164.084 35.108ZM158.374 32.4489L157.517 33.2897L157.521 33.2935L158.374 32.4489ZM157.879 23.2784L156.922 22.5541L156.918 22.5598L157.879 23.2784ZM161.749 20.4659L161.308 19.3497L161.306 19.3507L161.749 20.4659ZM175.419 21.5739L174.707 22.5401L174.71 22.5421L175.419 21.5739ZM178.76 27.2841L178.686 26.0864L172.039 26.4954L172.112 27.6932L172.186 28.8909L178.834 28.4818L178.76 27.2841ZM172.112 27.6932L173.289 27.4578C173.136 26.6921 172.804 26 172.305 25.3954L171.379 26.1591L170.454 26.9228C170.705 27.2273 170.861 27.5579 170.936 27.9285L172.112 27.6932ZM171.379 26.1591L172.314 25.4067C171.805 24.7747 171.15 24.2952 170.384 23.9546L169.896 25.0511L169.409 26.1477C169.87 26.3526 170.203 26.6117 170.444 26.9115L171.379 26.1591ZM169.896 25.0511L170.408 23.9658C169.61 23.5891 168.704 23.425 167.732 23.425V24.625V25.825C168.441 25.825 168.979 25.945 169.384 26.1365L169.896 25.0511ZM167.732 24.625V23.425C166.437 23.425 165.257 23.7006 164.254 24.3199L164.885 25.3409L165.516 26.3619C166.058 26.0267 166.776 25.825 167.732 25.825V24.625ZM164.885 25.3409L164.265 24.3133C163.197 24.9575 162.526 25.9411 162.526 27.2159H163.726H164.926C164.926 26.9226 165.028 26.6562 165.505 26.3686L164.885 25.3409ZM163.726 27.2159H162.526C162.526 28.2117 162.945 29.0644 163.692 29.7093L164.476 28.8011L165.26 27.8929C165.007 27.6743 164.926 27.4701 164.926 27.2159H163.726ZM164.476 28.8011L163.692 29.7093C164.426 30.3441 165.53 30.7417 166.798 31.0141L167.05 29.8409L167.302 28.6677C166.138 28.4174 165.525 28.1218 165.26 27.8929L164.476 28.8011ZM167.05 29.8409L166.813 31.0173L171.551 31.9718L171.788 30.7955L172.025 29.6191L167.287 28.6645L167.05 29.8409ZM171.788 30.7955L171.547 31.9709C173.982 32.4709 175.64 33.2469 176.666 34.1981L177.482 33.3182L178.297 32.4383C176.823 31.0713 174.686 30.1655 172.03 29.62L171.788 30.7955ZM177.482 33.3182L176.666 34.1981C177.643 35.1046 178.157 36.2945 178.157 37.8864H179.357H180.557C180.557 35.7055 179.82 33.85 178.297 32.4383L177.482 33.3182ZM179.357 37.8864H178.157C178.157 39.3474 177.733 40.5902 176.894 41.665L177.839 42.4034L178.785 43.1419C179.969 41.6257 180.557 39.8572 180.557 37.8864H179.357ZM177.839 42.4034L176.89 41.6701C176.036 42.7756 174.842 43.6695 173.254 44.3294L173.714 45.4375L174.175 46.5456C176.087 45.751 177.643 44.6221 178.789 43.1367L177.839 42.4034ZM173.714 45.4375L173.258 44.3279C171.691 44.9731 169.845 45.3114 167.697 45.3114V46.5114V47.7114C170.095 47.7114 172.261 47.3338 174.171 46.5471L173.714 45.4375ZM167.697 46.5114V45.3114C164.387 45.3114 161.894 44.6212 160.103 43.3643L159.413 44.3466L158.724 45.3289C161.046 46.9584 164.076 47.7114 167.697 47.7114V46.5114ZM159.413 44.3466L160.109 43.3686C158.334 42.1064 157.312 40.4231 157.005 38.2473L155.817 38.4148L154.629 38.5822C155.026 41.4064 156.402 43.6777 158.718 45.3245L159.413 44.3466ZM155.817 38.4148L155.88 39.6131L163.022 39.2381L162.959 38.0398L162.896 36.8414L155.754 37.2164L155.817 38.4148ZM162.959 38.0398L161.783 38.28C162.057 39.6185 162.745 40.7092 163.858 41.4566L164.527 40.4602L165.196 39.4639C164.65 39.0976 164.293 38.5746 164.135 37.7996L162.959 38.0398ZM164.527 40.4602L163.868 41.4629C164.945 42.171 166.255 42.4784 167.714 42.4784V41.2784V40.0784C166.583 40.0784 165.768 39.8404 165.186 39.4576L164.527 40.4602ZM167.714 41.2784V42.4784C169.129 42.4784 170.398 42.2084 171.424 41.5597L170.783 40.5455L170.141 39.5312C169.622 39.8597 168.846 40.0784 167.714 40.0784V41.2784ZM170.783 40.5455L171.428 41.5572C172.479 40.8868 173.157 39.9041 173.176 38.6367L171.976 38.6193L170.776 38.6019C170.772 38.9027 170.654 39.2041 170.137 39.5337L170.783 40.5455ZM171.976 38.6193L173.176 38.5986C173.158 37.5562 172.693 36.6813 171.873 36.0496L171.141 37L170.408 37.9504C170.679 38.1596 170.771 38.3642 170.776 38.64L171.976 38.6193ZM171.141 37L171.885 36.0591C171.123 35.4559 170.067 35.0774 168.853 34.8347L168.618 36.0114L168.383 37.1881C169.442 37.3999 170.067 37.6805 170.396 37.9409L171.141 37ZM168.618 36.0114L168.852 34.8345L164.318 33.9311L164.084 35.108L163.849 36.2848L168.383 37.1882L168.618 36.0114ZM164.084 35.108L164.319 33.9313C161.893 33.446 160.246 32.6338 159.226 31.6042L158.374 32.4489L157.521 33.2935C159.001 34.7867 161.161 35.7472 163.848 36.2847L164.084 35.108ZM158.374 32.4489L159.23 31.6081C158.236 30.5958 157.716 29.3014 157.716 27.625H156.516H155.316C155.316 29.8577 156.034 31.7792 157.517 33.2896L158.374 32.4489ZM156.516 27.625H157.716C157.716 26.1728 158.103 24.9831 158.84 23.997L157.879 23.2784L156.918 22.5598C155.837 24.0056 155.316 25.7135 155.316 27.625H156.516ZM157.879 23.2784L158.836 24.0027C159.603 22.9895 160.701 22.1733 162.192 21.5811L161.749 20.4659L161.306 19.3507C159.478 20.0767 157.996 21.1355 156.922 22.5541L157.879 23.2784ZM161.749 20.4659L162.189 21.5822C163.689 20.9902 165.488 20.6773 167.612 20.6773V19.4773V18.2773C165.259 18.2773 163.149 18.6234 161.308 19.3497L161.749 20.4659ZM167.612 19.4773V20.6773C170.763 20.6773 173.084 21.3446 174.707 22.5401L175.419 21.5739L176.131 20.6076C173.958 19.0077 171.075 18.2773 167.612 18.2773V19.4773ZM175.419 21.5739L174.71 22.5421C176.347 23.7406 177.294 25.3469 177.57 27.4412L178.76 27.2841L179.95 27.127C179.59 24.4031 178.309 22.2026 176.128 20.6056L175.419 21.5739ZM191.19 30.8636L189.99 30.8515V30.8636H191.19ZM191.19 46V47.2H192.39V46H191.19ZM183.929 46H182.729V47.2H183.929V46ZM183.929 11.0909V9.89091H182.729V11.0909H183.929ZM190.986 11.0909H192.186V9.89091H190.986V11.0909ZM190.986 24.4375H189.786V25.6375H190.986V24.4375ZM191.293 24.4375V25.6375H192.119L192.413 24.8661L191.293 24.4375ZM194.156 20.8068L194.82 21.8066L194.826 21.8026L194.156 20.8068ZM203.872 20.6705L203.264 21.7048L203.274 21.7107L203.872 20.6705ZM207.043 24.0625L205.973 24.6058L205.978 24.6156L207.043 24.0625ZM208.168 29.3295L206.968 29.3229V29.3295H208.168ZM208.168 46V47.2H209.368V46H208.168ZM200.906 46H199.706V47.2H200.906V46ZM200.906 30.625L199.706 30.6165V30.625H200.906ZM199.679 26.858L198.792 27.6663L198.798 27.6724L199.679 26.858ZM193.611 26.142L193.031 25.0916L193.024 25.0953L193.611 26.142ZM191.838 27.983L190.78 27.4167L190.777 27.4222L191.838 27.983ZM191.19 30.8636H189.99V46H191.19H192.39V30.8636H191.19ZM191.19 46V44.8H183.929V46V47.2H191.19V46ZM183.929 46H185.129V11.0909H183.929H182.729V46H183.929ZM183.929 11.0909V12.2909H190.986V11.0909V9.89091H183.929V11.0909ZM190.986 11.0909H189.786V24.4375H190.986H192.186V11.0909H190.986ZM190.986 24.4375V25.6375H191.293V24.4375V23.2375H190.986V24.4375ZM191.293 24.4375L192.413 24.8661C192.92 23.5426 193.72 22.5369 194.82 21.8066L194.156 20.8068L193.493 19.807C191.956 20.8268 190.848 22.2415 190.172 24.0089L191.293 24.4375ZM194.156 20.8068L194.826 21.8026C195.901 21.0794 197.306 20.6773 199.116 20.6773V19.4773V18.2773C196.95 18.2773 195.047 18.7615 193.487 19.811L194.156 20.8068ZM199.116 19.4773V20.6773C200.755 20.6773 202.123 21.034 203.264 21.7048L203.872 20.6705L204.481 19.6361C202.916 18.716 201.114 18.2773 199.116 18.2773V19.4773ZM203.872 20.6705L203.274 21.7107C204.424 22.3722 205.322 23.3248 205.973 24.6057L207.043 24.0625L208.113 23.5193C207.263 21.8456 206.047 20.5369 204.47 19.6302L203.872 20.6705ZM207.043 24.0625L205.978 24.6156C206.63 25.8722 206.978 27.4265 206.968 29.3229L208.168 29.3295L209.368 29.3362C209.38 27.1416 208.978 25.1846 208.108 23.5094L207.043 24.0625ZM208.168 29.3295H206.968V46H208.168H209.368V29.3295H208.168ZM208.168 46V44.8H200.906V46V47.2H208.168V46ZM200.906 46H202.106V30.625H200.906H199.706V46H200.906ZM200.906 30.625L202.106 30.6335C202.119 28.8152 201.656 27.2292 200.56 26.0436L199.679 26.858L198.798 27.6724C199.361 28.2821 199.716 29.2075 199.706 30.6165L200.906 30.625ZM199.679 26.858L200.566 26.0496C199.472 24.8495 197.972 24.3114 196.236 24.3114V25.5114V26.7114C197.454 26.7114 198.25 27.071 198.792 27.6663L199.679 26.858ZM196.236 25.5114V24.3114C195.072 24.3114 193.993 24.5603 193.031 25.0916L193.611 26.142L194.191 27.1925C194.752 26.8829 195.422 26.7114 196.236 26.7114V25.5114ZM193.611 26.142L193.024 25.0953C192.061 25.635 191.313 26.4216 190.78 27.4167L191.838 27.983L192.896 28.5492C193.227 27.9306 193.66 27.49 194.198 27.1888L193.611 26.142ZM191.838 27.983L190.777 27.4222C190.248 28.4239 190.003 29.5821 189.99 30.8515L191.19 30.8636L192.39 30.8758C192.4 29.8952 192.588 29.1329 192.899 28.5437L191.838 27.983Z" fill="#545454" mask="url(#path-4-inside-1_42_89)"/>
<mask id="path-6-inside-2_42_89" fill="white">
<path d="M212.705 17.1761V11.0909H241.375V17.1761H230.688V46H223.392V17.1761H212.705ZM243.241 46V19.8182H250.281V24.3864H250.554C251.031 22.7614 251.832 21.5341 252.957 20.7045C254.082 19.8636 255.378 19.4432 256.844 19.4432C257.207 19.4432 257.599 19.4659 258.02 19.5114C258.44 19.5568 258.81 19.6193 259.128 19.6989V26.142C258.787 26.0398 258.315 25.9489 257.713 25.8693C257.111 25.7898 256.56 25.75 256.06 25.75C254.991 25.75 254.037 25.983 253.196 26.4489C252.366 26.9034 251.707 27.5398 251.219 28.358C250.741 29.1761 250.503 30.1193 250.503 31.1875V46H243.241ZM269.598 46.4943C267.928 46.4943 266.439 46.2045 265.132 45.625C263.825 45.0341 262.791 44.1648 262.03 43.017C261.28 41.858 260.905 40.4148 260.905 38.6875C260.905 37.233 261.172 36.0114 261.706 35.0227C262.24 34.0341 262.967 33.2386 263.888 32.6364C264.808 32.0341 265.854 31.5795 267.024 31.2727C268.206 30.9659 269.445 30.75 270.74 30.625C272.263 30.4659 273.49 30.3182 274.422 30.1818C275.354 30.0341 276.03 29.8182 276.45 29.5341C276.871 29.25 277.081 28.8295 277.081 28.2727V28.1705C277.081 27.0909 276.74 26.2557 276.058 25.6648C275.388 25.0739 274.433 24.7784 273.195 24.7784C271.888 24.7784 270.848 25.0682 270.075 25.6477C269.303 26.2159 268.791 26.9318 268.541 27.7955L261.825 27.25C262.166 25.6591 262.837 24.2841 263.837 23.125C264.837 21.9545 266.126 21.0568 267.706 20.4318C269.297 19.7955 271.138 19.4773 273.229 19.4773C274.683 19.4773 276.075 19.6477 277.405 19.9886C278.746 20.3295 279.933 20.858 280.967 21.5739C282.013 22.2898 282.837 23.2102 283.439 24.3352C284.041 25.4489 284.342 26.7841 284.342 28.3409V46H277.456V42.3693H277.251C276.831 43.1875 276.268 43.9091 275.564 44.5341C274.859 45.1477 274.013 45.6307 273.024 45.983C272.036 46.3239 270.893 46.4943 269.598 46.4943ZM271.678 41.483C272.746 41.483 273.689 41.2727 274.507 40.8523C275.325 40.4205 275.967 39.8409 276.433 39.1136C276.899 38.3864 277.132 37.5625 277.132 36.642V33.8636C276.905 34.0114 276.592 34.1477 276.195 34.2727C275.808 34.3864 275.371 34.4943 274.882 34.5966C274.393 34.6875 273.905 34.7727 273.416 34.8523C272.928 34.9205 272.484 34.983 272.087 35.0398C271.234 35.1648 270.49 35.3636 269.854 35.6364C269.217 35.9091 268.723 36.2784 268.371 36.7443C268.018 37.1989 267.842 37.767 267.842 38.4489C267.842 39.4375 268.2 40.1932 268.916 40.7159C269.643 41.2273 270.564 41.483 271.678 41.483ZM299.624 46.4261C297.635 46.4261 295.834 45.9148 294.22 44.892C292.618 43.858 291.345 42.3409 290.402 40.3409C289.47 38.3295 289.004 35.8636 289.004 32.9432C289.004 29.9432 289.487 27.4489 290.453 25.4602C291.419 23.4602 292.703 21.9659 294.305 20.9773C295.919 19.9773 297.686 19.4773 299.607 19.4773C301.072 19.4773 302.294 19.7273 303.271 20.2273C304.26 20.7159 305.055 21.3295 305.658 22.0682C306.271 22.7955 306.737 23.5114 307.055 24.2159H307.277V11.0909H314.521V46H307.362V41.8068H307.055C306.714 42.5341 306.232 43.2557 305.607 43.9716C304.993 44.6761 304.192 45.2614 303.203 45.7273C302.226 46.1932 301.033 46.4261 299.624 46.4261ZM301.925 40.6477C303.095 40.6477 304.084 40.3295 304.891 39.6932C305.709 39.0455 306.334 38.142 306.766 36.983C307.209 35.8239 307.43 34.4659 307.43 32.9091C307.43 31.3523 307.214 30 306.783 28.8523C306.351 27.7045 305.726 26.8182 304.908 26.1932C304.089 25.5682 303.095 25.2557 301.925 25.2557C300.732 25.2557 299.726 25.5795 298.908 26.2273C298.089 26.875 297.47 27.7727 297.05 28.9205C296.629 30.0682 296.419 31.3977 296.419 32.9091C296.419 34.4318 296.629 35.7784 297.05 36.9489C297.482 38.108 298.101 39.017 298.908 39.6761C299.726 40.3239 300.732 40.6477 301.925 40.6477ZM332.423 46.5114C329.73 46.5114 327.412 45.9659 325.469 44.875C323.537 43.7727 322.048 42.2159 321.003 40.2045C319.957 38.1818 319.435 35.7898 319.435 33.0284C319.435 30.3352 319.957 27.9716 321.003 25.9375C322.048 23.9034 323.52 22.3182 325.418 21.1818C327.327 20.0455 329.565 19.4773 332.134 19.4773C333.861 19.4773 335.469 19.7557 336.957 20.3125C338.457 20.858 339.764 21.6818 340.878 22.7841C342.003 23.8864 342.878 25.2727 343.503 26.9432C344.128 28.6023 344.44 30.5455 344.44 32.7727V34.767H322.332V30.267H337.605C337.605 29.2216 337.378 28.2955 336.923 27.4886C336.469 26.6818 335.838 26.0511 335.031 25.5966C334.236 25.1307 333.31 24.8977 332.253 24.8977C331.151 24.8977 330.173 25.1534 329.321 25.6648C328.48 26.1648 327.821 26.8409 327.344 27.6932C326.866 28.5341 326.622 29.4716 326.611 30.5057V34.7841C326.611 36.0795 326.849 37.1989 327.327 38.142C327.815 39.0852 328.503 39.8125 329.389 40.3239C330.276 40.8352 331.327 41.0909 332.543 41.0909C333.349 41.0909 334.088 40.9773 334.759 40.75C335.429 40.5227 336.003 40.1818 336.48 39.7273C336.957 39.2727 337.321 38.7159 337.571 38.0568L344.287 38.5C343.946 40.1136 343.247 41.5227 342.19 42.7273C341.145 43.9205 339.793 44.8523 338.134 45.5227C336.486 46.1818 334.582 46.5114 332.423 46.5114Z"/>
</mask>
<path d="M212.705 17.1761V11.0909H241.375V17.1761H230.688V46H223.392V17.1761H212.705ZM243.241 46V19.8182H250.281V24.3864H250.554C251.031 22.7614 251.832 21.5341 252.957 20.7045C254.082 19.8636 255.378 19.4432 256.844 19.4432C257.207 19.4432 257.599 19.4659 258.02 19.5114C258.44 19.5568 258.81 19.6193 259.128 19.6989V26.142C258.787 26.0398 258.315 25.9489 257.713 25.8693C257.111 25.7898 256.56 25.75 256.06 25.75C254.991 25.75 254.037 25.983 253.196 26.4489C252.366 26.9034 251.707 27.5398 251.219 28.358C250.741 29.1761 250.503 30.1193 250.503 31.1875V46H243.241ZM269.598 46.4943C267.928 46.4943 266.439 46.2045 265.132 45.625C263.825 45.0341 262.791 44.1648 262.03 43.017C261.28 41.858 260.905 40.4148 260.905 38.6875C260.905 37.233 261.172 36.0114 261.706 35.0227C262.24 34.0341 262.967 33.2386 263.888 32.6364C264.808 32.0341 265.854 31.5795 267.024 31.2727C268.206 30.9659 269.445 30.75 270.74 30.625C272.263 30.4659 273.49 30.3182 274.422 30.1818C275.354 30.0341 276.03 29.8182 276.45 29.5341C276.871 29.25 277.081 28.8295 277.081 28.2727V28.1705C277.081 27.0909 276.74 26.2557 276.058 25.6648C275.388 25.0739 274.433 24.7784 273.195 24.7784C271.888 24.7784 270.848 25.0682 270.075 25.6477C269.303 26.2159 268.791 26.9318 268.541 27.7955L261.825 27.25C262.166 25.6591 262.837 24.2841 263.837 23.125C264.837 21.9545 266.126 21.0568 267.706 20.4318C269.297 19.7955 271.138 19.4773 273.229 19.4773C274.683 19.4773 276.075 19.6477 277.405 19.9886C278.746 20.3295 279.933 20.858 280.967 21.5739C282.013 22.2898 282.837 23.2102 283.439 24.3352C284.041 25.4489 284.342 26.7841 284.342 28.3409V46H277.456V42.3693H277.251C276.831 43.1875 276.268 43.9091 275.564 44.5341C274.859 45.1477 274.013 45.6307 273.024 45.983C272.036 46.3239 270.893 46.4943 269.598 46.4943ZM271.678 41.483C272.746 41.483 273.689 41.2727 274.507 40.8523C275.325 40.4205 275.967 39.8409 276.433 39.1136C276.899 38.3864 277.132 37.5625 277.132 36.642V33.8636C276.905 34.0114 276.592 34.1477 276.195 34.2727C275.808 34.3864 275.371 34.4943 274.882 34.5966C274.393 34.6875 273.905 34.7727 273.416 34.8523C272.928 34.9205 272.484 34.983 272.087 35.0398C271.234 35.1648 270.49 35.3636 269.854 35.6364C269.217 35.9091 268.723 36.2784 268.371 36.7443C268.018 37.1989 267.842 37.767 267.842 38.4489C267.842 39.4375 268.2 40.1932 268.916 40.7159C269.643 41.2273 270.564 41.483 271.678 41.483ZM299.624 46.4261C297.635 46.4261 295.834 45.9148 294.22 44.892C292.618 43.858 291.345 42.3409 290.402 40.3409C289.47 38.3295 289.004 35.8636 289.004 32.9432C289.004 29.9432 289.487 27.4489 290.453 25.4602C291.419 23.4602 292.703 21.9659 294.305 20.9773C295.919 19.9773 297.686 19.4773 299.607 19.4773C301.072 19.4773 302.294 19.7273 303.271 20.2273C304.26 20.7159 305.055 21.3295 305.658 22.0682C306.271 22.7955 306.737 23.5114 307.055 24.2159H307.277V11.0909H314.521V46H307.362V41.8068H307.055C306.714 42.5341 306.232 43.2557 305.607 43.9716C304.993 44.6761 304.192 45.2614 303.203 45.7273C302.226 46.1932 301.033 46.4261 299.624 46.4261ZM301.925 40.6477C303.095 40.6477 304.084 40.3295 304.891 39.6932C305.709 39.0455 306.334 38.142 306.766 36.983C307.209 35.8239 307.43 34.4659 307.43 32.9091C307.43 31.3523 307.214 30 306.783 28.8523C306.351 27.7045 305.726 26.8182 304.908 26.1932C304.089 25.5682 303.095 25.2557 301.925 25.2557C300.732 25.2557 299.726 25.5795 298.908 26.2273C298.089 26.875 297.47 27.7727 297.05 28.9205C296.629 30.0682 296.419 31.3977 296.419 32.9091C296.419 34.4318 296.629 35.7784 297.05 36.9489C297.482 38.108 298.101 39.017 298.908 39.6761C299.726 40.3239 300.732 40.6477 301.925 40.6477ZM332.423 46.5114C329.73 46.5114 327.412 45.9659 325.469 44.875C323.537 43.7727 322.048 42.2159 321.003 40.2045C319.957 38.1818 319.435 35.7898 319.435 33.0284C319.435 30.3352 319.957 27.9716 321.003 25.9375C322.048 23.9034 323.52 22.3182 325.418 21.1818C327.327 20.0455 329.565 19.4773 332.134 19.4773C333.861 19.4773 335.469 19.7557 336.957 20.3125C338.457 20.858 339.764 21.6818 340.878 22.7841C342.003 23.8864 342.878 25.2727 343.503 26.9432C344.128 28.6023 344.44 30.5455 344.44 32.7727V34.767H322.332V30.267H337.605C337.605 29.2216 337.378 28.2955 336.923 27.4886C336.469 26.6818 335.838 26.0511 335.031 25.5966C334.236 25.1307 333.31 24.8977 332.253 24.8977C331.151 24.8977 330.173 25.1534 329.321 25.6648C328.48 26.1648 327.821 26.8409 327.344 27.6932C326.866 28.5341 326.622 29.4716 326.611 30.5057V34.7841C326.611 36.0795 326.849 37.1989 327.327 38.142C327.815 39.0852 328.503 39.8125 329.389 40.3239C330.276 40.8352 331.327 41.0909 332.543 41.0909C333.349 41.0909 334.088 40.9773 334.759 40.75C335.429 40.5227 336.003 40.1818 336.48 39.7273C336.957 39.2727 337.321 38.7159 337.571 38.0568L344.287 38.5C343.946 40.1136 343.247 41.5227 342.19 42.7273C341.145 43.9205 339.793 44.8523 338.134 45.5227C336.486 46.1818 334.582 46.5114 332.423 46.5114Z" fill="#77F3A4"/>
<path d="M212.705 17.1761H211.705V18.1761H212.705V17.1761ZM212.705 11.0909V10.0909H211.705V11.0909H212.705ZM241.375 11.0909H242.375V10.0909H241.375V11.0909ZM241.375 17.1761V18.1761H242.375V17.1761H241.375ZM230.688 17.1761V16.1761H229.688V17.1761H230.688ZM230.688 46V47H231.688V46H230.688ZM223.392 46H222.392V47H223.392V46ZM223.392 17.1761H224.392V16.1761H223.392V17.1761ZM212.705 17.1761H213.705V11.0909H212.705H211.705V17.1761H212.705ZM212.705 11.0909V12.0909H241.375V11.0909V10.0909H212.705V11.0909ZM241.375 11.0909H240.375V17.1761H241.375H242.375V11.0909H241.375ZM241.375 17.1761V16.1761H230.688V17.1761V18.1761H241.375V17.1761ZM230.688 17.1761H229.688V46H230.688H231.688V17.1761H230.688ZM230.688 46V45H223.392V46V47H230.688V46ZM223.392 46H224.392V17.1761H223.392H222.392V46H223.392ZM223.392 17.1761V16.1761H212.705V17.1761V18.1761H223.392V17.1761ZM243.241 46H242.241V47H243.241V46ZM243.241 19.8182V18.8182H242.241V19.8182H243.241ZM250.281 19.8182H251.281V18.8182H250.281V19.8182ZM250.281 24.3864H249.281V25.3864H250.281V24.3864ZM250.554 24.3864V25.3864H251.303L251.513 24.6682L250.554 24.3864ZM252.957 20.7045L253.551 21.5094L253.556 21.5055L252.957 20.7045ZM258.02 19.5114L258.127 18.5172L258.127 18.5172L258.02 19.5114ZM259.128 19.6989H260.128V18.9181L259.37 18.7287L259.128 19.6989ZM259.128 26.142L258.84 27.0999L260.128 27.4861V26.142H259.128ZM253.196 26.4489L253.677 27.3258L253.681 27.3236L253.196 26.4489ZM251.219 28.358L250.36 27.8452L250.355 27.8541L251.219 28.358ZM250.503 46V47H251.503V46H250.503ZM243.241 46H244.241V19.8182H243.241H242.241V46H243.241ZM243.241 19.8182V20.8182H250.281V19.8182V18.8182H243.241V19.8182ZM250.281 19.8182H249.281V24.3864H250.281H251.281V19.8182H250.281ZM250.281 24.3864V25.3864H250.554V24.3864V23.3864H250.281V24.3864ZM250.554 24.3864L251.513 24.6682C251.943 23.2072 252.636 22.1836 253.551 21.5094L252.957 20.7045L252.364 19.8997C251.028 20.8845 250.12 22.3155 249.595 24.1046L250.554 24.3864ZM252.957 20.7045L253.556 21.5055C254.5 20.7997 255.584 20.4432 256.844 20.4432V19.4432V18.4432C255.172 18.4432 253.664 18.9275 252.359 19.9036L252.957 20.7045ZM256.844 19.4432V20.4432C257.166 20.4432 257.522 20.4634 257.912 20.5056L258.02 19.5114L258.127 18.5172C257.677 18.4684 257.249 18.4432 256.844 18.4432V19.4432ZM258.02 19.5114L257.912 20.5056C258.3 20.5474 258.622 20.6032 258.885 20.669L259.128 19.6989L259.37 18.7287C258.997 18.6354 258.581 18.5662 258.127 18.5172L258.02 19.5114ZM259.128 19.6989H258.128V26.142H259.128H260.128V19.6989H259.128ZM259.128 26.142L259.415 25.1842C259 25.0596 258.468 24.9603 257.844 24.8779L257.713 25.8693L257.582 26.8607C258.163 26.9374 258.574 27.0199 258.84 27.0999L259.128 26.142ZM257.713 25.8693L257.844 24.8779C257.207 24.7938 256.612 24.75 256.06 24.75V25.75V26.75C256.508 26.75 257.014 26.7857 257.582 26.8607L257.713 25.8693ZM256.06 25.75V24.75C254.841 24.75 253.717 25.0172 252.711 25.5741L253.196 26.4489L253.681 27.3236C254.357 26.9487 255.142 26.75 256.06 26.75V25.75ZM253.196 26.4489L252.715 25.5719C251.729 26.1127 250.939 26.8753 250.36 27.8452L251.219 28.358L252.077 28.8707C252.475 28.2042 253.004 27.6941 253.677 27.3258L253.196 26.4489ZM251.219 28.358L250.355 27.8541C249.778 28.844 249.503 29.9653 249.503 31.1875H250.503H251.503C251.503 30.2733 251.705 29.5083 252.083 28.8618L251.219 28.358ZM250.503 31.1875H249.503V46H250.503H251.503V31.1875H250.503ZM250.503 46V45H243.241V46V47H250.503V46ZM265.132 45.625L264.72 46.5362L264.727 46.5391L265.132 45.625ZM262.03 43.017L261.19 43.5603L261.197 43.5698L262.03 43.017ZM261.706 35.0227L260.826 34.5474L260.826 34.5474L261.706 35.0227ZM263.888 32.6364L263.34 31.7996L263.34 31.7996L263.888 32.6364ZM267.024 31.2727L266.773 30.3048L266.771 30.3054L267.024 31.2727ZM270.74 30.625L270.836 31.6204L270.844 31.6196L270.74 30.625ZM274.422 30.1818L274.567 31.1713L274.578 31.1695L274.422 30.1818ZM276.45 29.5341L275.89 28.7055L275.89 28.7055L276.45 29.5341ZM276.058 25.6648L275.397 26.415L275.403 26.4205L276.058 25.6648ZM270.075 25.6477L270.668 26.4534L270.675 26.4477L270.075 25.6477ZM268.541 27.7955L268.46 28.7922L269.275 28.8583L269.502 28.0735L268.541 27.7955ZM261.825 27.25L260.847 27.0405L260.609 28.1545L261.744 28.2467L261.825 27.25ZM263.837 23.125L264.594 23.7782L264.597 23.7746L263.837 23.125ZM267.706 20.4318L268.074 21.3617L268.077 21.3603L267.706 20.4318ZM277.405 19.9886L277.156 20.9573L277.158 20.9578L277.405 19.9886ZM280.967 21.5739L280.398 22.3961L280.402 22.3989L280.967 21.5739ZM283.439 24.3352L282.557 24.8072L282.559 24.8109L283.439 24.3352ZM284.342 46V47H285.342V46H284.342ZM277.456 46H276.456V47H277.456V46ZM277.456 42.3693H278.456V41.3693H277.456V42.3693ZM277.251 42.3693V41.3693H276.641L276.362 41.9122L277.251 42.3693ZM275.564 44.5341L276.221 45.2882L276.228 45.2822L275.564 44.5341ZM273.024 45.983L273.35 46.9284L273.36 46.9249L273.024 45.983ZM274.507 40.8523L274.964 41.7418L274.974 41.7367L274.507 40.8523ZM276.433 39.1136L275.591 38.5742L275.591 38.5742L276.433 39.1136ZM277.132 33.8636H278.132V32.021L276.587 33.0252L277.132 33.8636ZM276.195 34.2727L276.477 35.2321L276.486 35.2295L276.494 35.2267L276.195 34.2727ZM274.882 34.5966L275.065 35.5797L275.076 35.5777L275.087 35.5754L274.882 34.5966ZM273.416 34.8523L273.554 35.8427L273.566 35.8411L273.577 35.8393L273.416 34.8523ZM272.087 35.0398L271.945 34.0498L271.942 34.0504L272.087 35.0398ZM269.854 35.6364L270.248 36.5555L270.248 36.5555L269.854 35.6364ZM268.371 36.7443L269.161 37.3569L269.168 37.3474L268.371 36.7443ZM268.916 40.7159L268.326 41.5235L268.334 41.5288L268.341 41.5339L268.916 40.7159ZM269.598 46.4943V45.4943C268.044 45.4943 266.697 45.2251 265.538 44.7109L265.132 45.625L264.727 46.5391C266.181 47.184 267.811 47.4943 269.598 47.4943V46.4943ZM265.132 45.625L265.544 44.7138C264.401 44.197 263.516 43.4486 262.863 42.4643L262.03 43.017L261.197 43.5698C262.066 44.8809 263.249 45.8712 264.72 46.5362L265.132 45.625ZM262.03 43.017L262.869 42.4738C262.248 41.5128 261.905 40.2703 261.905 38.6875H260.905H259.905C259.905 40.5592 260.312 42.2031 261.19 43.5603L262.03 43.017ZM260.905 38.6875H261.905C261.905 37.3514 262.15 36.3039 262.586 35.498L261.706 35.0227L260.826 34.5474C260.193 35.7188 259.905 37.1145 259.905 38.6875H260.905ZM261.706 35.0227L262.586 35.498C263.043 34.6524 263.657 33.9824 264.435 33.4732L263.888 32.6364L263.34 31.7996C262.278 32.4949 261.437 33.4158 260.826 34.5474L261.706 35.0227ZM263.888 32.6364L264.435 33.4732C265.257 32.9356 266.201 32.5222 267.278 32.24L267.024 31.2727L266.771 30.3054C265.506 30.6369 264.36 31.1326 263.34 31.7996L263.888 32.6364ZM267.024 31.2727L267.275 32.2406C268.403 31.9479 269.59 31.7407 270.836 31.6204L270.74 30.625L270.644 29.6296C269.3 29.7593 268.009 29.9839 266.773 30.3048L267.024 31.2727ZM270.74 30.625L270.844 31.6196C272.373 31.4598 273.616 31.3105 274.567 31.1713L274.422 30.1818L274.277 29.1924C273.365 29.3259 272.152 29.472 270.636 29.6304L270.74 30.625ZM274.422 30.1818L274.578 31.1695C275.551 31.0152 276.404 30.7719 277.01 30.3627L276.45 29.5341L275.89 28.7055C275.655 28.8644 275.156 29.0529 274.265 29.1942L274.422 30.1818ZM276.45 29.5341L277.01 30.3627C277.736 29.8723 278.081 29.1236 278.081 28.2727H277.081H276.081C276.081 28.5355 276.006 28.6277 275.89 28.7055L276.45 29.5341ZM277.081 28.2727H278.081V28.1705H277.081H276.081V28.2727H277.081ZM277.081 28.1705H278.081C278.081 26.8634 277.657 25.7274 276.713 24.9091L276.058 25.6648L275.403 26.4205C275.823 26.784 276.081 27.3184 276.081 28.1705H277.081ZM276.058 25.6648L276.719 24.9146C275.806 24.1098 274.583 23.7784 273.195 23.7784V24.7784V25.7784C274.284 25.7784 274.969 26.0379 275.397 26.415L276.058 25.6648ZM273.195 24.7784V23.7784C271.747 23.7784 270.473 24.0994 269.475 24.8477L270.075 25.6477L270.675 26.4477C271.223 26.037 272.029 25.7784 273.195 25.7784V24.7784ZM270.075 25.6477L269.483 24.8421C268.545 25.5315 267.896 26.4275 267.581 27.5174L268.541 27.7955L269.502 28.0735C269.686 27.4361 270.06 26.9004 270.668 26.4534L270.075 25.6477ZM268.541 27.7955L268.622 26.7987L261.906 26.2533L261.825 27.25L261.744 28.2467L268.46 28.7922L268.541 27.7955ZM261.825 27.25L262.803 27.4595C263.111 26.022 263.71 24.8023 264.594 23.7782L263.837 23.125L263.079 22.4718C261.963 23.7659 261.221 25.2961 260.847 27.0405L261.825 27.25ZM263.837 23.125L264.597 23.7746C265.48 22.7406 266.63 21.933 268.074 21.3617L267.706 20.4318L267.338 19.502C265.623 20.1807 264.193 21.1685 263.076 22.4754L263.837 23.125ZM267.706 20.4318L268.077 21.3603C269.527 20.7803 271.238 20.4773 273.229 20.4773V19.4773V18.4773C271.038 18.4773 269.066 18.8106 267.335 19.5033L267.706 20.4318ZM273.229 19.4773V20.4773C274.604 20.4773 275.913 20.6384 277.156 20.9573L277.405 19.9886L277.653 19.02C276.238 18.6571 274.762 18.4773 273.229 18.4773V19.4773ZM277.405 19.9886L277.158 20.9578C278.395 21.2723 279.471 21.7544 280.398 22.3961L280.967 21.5739L281.537 20.7517C280.395 19.9615 279.096 19.3868 277.651 19.0195L277.405 19.9886ZM280.967 21.5739L280.402 22.3989C281.314 23.0236 282.03 23.8225 282.557 24.8072L283.439 24.3352L284.321 23.8633C283.643 22.5979 282.711 21.556 281.532 20.7488L280.967 21.5739ZM283.439 24.3352L282.559 24.8109C283.066 25.7486 283.342 26.9125 283.342 28.3409H284.342H285.342C285.342 26.6557 285.016 25.1492 284.319 23.8595L283.439 24.3352ZM284.342 28.3409H283.342V46H284.342H285.342V28.3409H284.342ZM284.342 46V45H277.456V46V47H284.342V46ZM277.456 46H278.456V42.3693H277.456H276.456V46H277.456ZM277.456 42.3693V41.3693H277.251V42.3693V43.3693H277.456V42.3693ZM277.251 42.3693L276.362 41.9122C275.999 42.6176 275.514 43.2412 274.9 43.786L275.564 44.5341L276.228 45.2822C277.022 44.577 277.662 43.7574 278.141 42.8264L277.251 42.3693ZM275.564 44.5341L274.907 43.78C274.308 44.302 273.574 44.7255 272.688 45.041L273.024 45.983L273.36 46.9249C274.452 46.5358 275.411 45.9935 276.221 45.2882L275.564 44.5341ZM273.024 45.983L272.698 45.0376C271.836 45.3349 270.808 45.4943 269.598 45.4943V46.4943V47.4943C270.979 47.4943 272.235 47.3129 273.35 46.9283L273.024 45.983ZM271.678 41.483V42.483C272.879 42.483 273.983 42.2457 274.964 41.7417L274.507 40.8523L274.05 39.9628C273.394 40.2997 272.612 40.483 271.678 40.483V41.483ZM274.507 40.8523L274.974 41.7367C275.934 41.2301 276.71 40.5361 277.275 39.6531L276.433 39.1136L275.591 38.5742C275.225 39.1457 274.717 39.6108 274.04 39.9679L274.507 40.8523ZM276.433 39.1136L277.275 39.6531C277.851 38.7541 278.132 37.7406 278.132 36.642H277.132H276.132C276.132 37.3844 275.947 38.0187 275.591 38.5742L276.433 39.1136ZM277.132 36.642H278.132V33.8636H277.132H276.132V36.642H277.132ZM277.132 33.8636L276.587 33.0252C276.465 33.1045 276.247 33.208 275.895 33.3187L276.195 34.2727L276.494 35.2267C276.938 35.0874 277.344 34.9183 277.677 34.7021L277.132 33.8636ZM276.195 34.2727L275.912 33.3134C275.557 33.418 275.146 33.5197 274.677 33.6178L274.882 34.5966L275.087 35.5754C275.596 35.4689 276.06 35.3547 276.477 35.2321L276.195 34.2727ZM274.882 34.5966L274.699 33.6135C274.218 33.703 273.737 33.7869 273.256 33.8653L273.416 34.8523L273.577 35.8393C274.073 35.7585 274.569 35.672 275.065 35.5797L274.882 34.5966ZM273.416 34.8523L273.278 33.8619C272.789 33.9302 272.344 33.9928 271.945 34.0498L272.087 35.0398L272.228 36.0297C272.625 35.9731 273.067 35.9107 273.554 35.8427L273.416 34.8523ZM272.087 35.0398L271.942 34.0504C271.024 34.185 270.192 34.4033 269.46 34.7172L269.854 35.6364L270.248 36.5555C270.788 36.324 271.445 36.1445 272.232 36.0292L272.087 35.0398ZM269.854 35.6364L269.46 34.7172C268.693 35.0457 268.048 35.513 267.573 36.1412L268.371 36.7443L269.168 37.3474C269.398 37.0439 269.741 36.7725 270.248 36.5555L269.854 35.6364ZM268.371 36.7443L267.58 36.1317C267.068 36.7926 266.842 37.5879 266.842 38.4489H267.842H268.842C268.842 37.9462 268.969 37.6052 269.161 37.3569L268.371 36.7443ZM267.842 38.4489H266.842C266.842 39.7142 267.32 40.7888 268.326 41.5235L268.916 40.7159L269.506 39.9083C269.08 39.5976 268.842 39.1608 268.842 38.4489H267.842ZM268.916 40.7159L268.341 41.5339C269.275 42.1906 270.41 42.483 271.678 42.483V41.483V40.483C270.717 40.483 270.012 40.2639 269.491 39.8979L268.916 40.7159ZM294.22 44.892L293.678 45.7323L293.685 45.7367L294.22 44.892ZM290.402 40.3409L289.495 40.7613L289.498 40.7674L290.402 40.3409ZM290.453 25.4602L291.353 25.8971L291.354 25.8951L290.453 25.4602ZM294.305 20.9773L294.831 21.8283L294.832 21.8273L294.305 20.9773ZM303.271 20.2273L302.816 21.1176L302.828 21.1238L303.271 20.2273ZM305.658 22.0682L304.883 22.7001L304.888 22.7066L304.893 22.7131L305.658 22.0682ZM307.055 24.2159L306.144 24.6275L306.41 25.2159H307.055V24.2159ZM307.277 24.2159V25.2159H308.277V24.2159H307.277ZM307.277 11.0909V10.0909H306.277V11.0909H307.277ZM314.521 11.0909H315.521V10.0909H314.521V11.0909ZM314.521 46V47H315.521V46H314.521ZM307.362 46H306.362V47H307.362V46ZM307.362 41.8068H308.362V40.8068H307.362V41.8068ZM307.055 41.8068V40.8068H306.42L306.15 41.3824L307.055 41.8068ZM305.607 43.9716L304.853 43.3139L304.852 43.3148L305.607 43.9716ZM303.203 45.7273L302.777 44.8227L302.773 44.8246L303.203 45.7273ZM304.891 39.6932L305.51 40.4783L305.511 40.4772L304.891 39.6932ZM306.766 36.983L305.832 36.6258L305.829 36.6338L306.766 36.983ZM306.783 28.8523L307.719 28.5001L307.719 28.5001L306.783 28.8523ZM298.908 26.2273L298.287 25.4432L298.287 25.4432L298.908 26.2273ZM297.05 36.9489L296.109 37.287L296.113 37.298L297.05 36.9489ZM298.908 39.6761L298.275 40.4506L298.281 40.4554L298.287 40.4602L298.908 39.6761ZM299.624 46.4261V45.4261C297.816 45.4261 296.202 44.9644 294.756 44.0474L294.22 44.892L293.685 45.7367C295.465 46.8652 297.454 47.4261 299.624 47.4261V46.4261ZM294.22 44.892L294.762 44.0518C293.341 43.1344 292.183 41.7728 291.306 39.9144L290.402 40.3409L289.498 40.7674C290.507 42.909 291.895 44.5815 293.678 45.7323L294.22 44.892ZM290.402 40.3409L291.309 39.9206C290.455 38.0757 290.004 35.7625 290.004 32.9432H289.004H288.004C288.004 35.9648 288.486 38.5833 289.495 40.7613L290.402 40.3409ZM289.004 32.9432H290.004C290.004 30.0433 290.472 27.71 291.353 25.8971L290.453 25.4602L289.554 25.0233C288.502 27.1877 288.004 29.8431 288.004 32.9432H289.004ZM290.453 25.4602L291.354 25.8951C292.252 24.0354 293.418 22.7 294.831 21.8283L294.305 20.9773L293.78 20.1262C291.989 21.2318 290.586 22.885 289.553 25.0253L290.453 25.4602ZM294.305 20.9773L294.832 21.8273C296.286 20.9265 297.87 20.4773 299.607 20.4773V19.4773V18.4773C297.502 18.4773 295.552 19.028 293.779 20.1273L294.305 20.9773ZM299.607 19.4773V20.4773C300.965 20.4773 302.019 20.7097 302.816 21.1175L303.271 20.2273L303.727 19.337C302.569 18.7448 301.18 18.4773 299.607 18.4773V19.4773ZM303.271 20.2273L302.828 21.1238C303.709 21.5589 304.384 22.0885 304.883 22.7001L305.658 22.0682L306.433 21.4362C305.727 20.5706 304.811 19.8729 303.714 19.3308L303.271 20.2273ZM305.658 22.0682L304.893 22.7131C305.461 23.3853 305.871 24.0239 306.144 24.6275L307.055 24.2159L307.967 23.8043C307.603 22.9988 307.082 22.2056 306.422 21.4233L305.658 22.0682ZM307.055 24.2159V25.2159H307.277V24.2159V23.2159H307.055V24.2159ZM307.277 24.2159H308.277V11.0909H307.277H306.277V24.2159H307.277ZM307.277 11.0909V12.0909H314.521V11.0909V10.0909H307.277V11.0909ZM314.521 11.0909H313.521V46H314.521H315.521V11.0909H314.521ZM314.521 46V45H307.362V46V47H314.521V46ZM307.362 46H308.362V41.8068H307.362H306.362V46H307.362ZM307.362 41.8068V40.8068H307.055V41.8068V42.8068H307.362V41.8068ZM307.055 41.8068L306.15 41.3824C305.855 42.0114 305.428 42.6558 304.853 43.3139L305.607 43.9716L306.36 44.6292C307.035 43.8555 307.574 43.0568 307.961 42.2313L307.055 41.8068ZM305.607 43.9716L304.852 43.3148C304.344 43.8987 303.661 44.4059 302.777 44.8227L303.203 45.7273L303.629 46.6319C304.722 46.1168 305.642 45.4535 306.361 44.6284L305.607 43.9716ZM303.203 45.7273L302.773 44.8246C301.964 45.2102 300.927 45.4261 299.624 45.4261V46.4261V47.4261C301.138 47.4261 302.488 47.1762 303.633 46.6299L303.203 45.7273ZM301.925 40.6477V41.6477C303.287 41.6477 304.502 41.2729 305.51 40.4783L304.891 39.6932L304.271 38.908C303.665 39.3862 302.903 39.6477 301.925 39.6477V40.6477ZM304.891 39.6932L305.511 40.4772C306.497 39.6967 307.219 38.6303 307.703 37.3321L306.766 36.983L305.829 36.6338C305.449 37.6538 304.92 38.3943 304.27 38.9091L304.891 39.6932ZM306.766 36.983L307.7 37.3401C308.196 36.0421 308.43 34.5581 308.43 32.9091H307.43H306.43C306.43 34.3737 306.222 35.6057 305.832 36.6258L306.766 36.983ZM307.43 32.9091H308.43C308.43 31.263 308.202 29.7862 307.719 28.5001L306.783 28.8523L305.847 29.2044C306.226 30.2138 306.43 31.4415 306.43 32.9091H307.43ZM306.783 28.8523L307.719 28.5001C307.234 27.2109 306.508 26.1574 305.515 25.3985L304.908 26.1932L304.301 26.9879C304.944 27.4789 305.468 28.1982 305.847 29.2044L306.783 28.8523ZM304.908 26.1932L305.515 25.3985C304.499 24.6224 303.283 24.2557 301.925 24.2557V25.2557V26.2557C302.907 26.2557 303.68 26.5139 304.301 26.9879L304.908 26.1932ZM301.925 25.2557V24.2557C300.54 24.2557 299.307 24.6359 298.287 25.4432L298.908 26.2273L299.528 27.0113C300.145 26.5232 300.923 26.2557 301.925 26.2557V25.2557ZM298.908 26.2273L298.287 25.4432C297.301 26.2239 296.584 27.2856 296.111 28.5765L297.05 28.9205L297.989 29.2644C298.357 28.2599 298.878 27.5261 299.528 27.0113L298.908 26.2273ZM297.05 28.9205L296.111 28.5765C295.642 29.857 295.419 31.3071 295.419 32.9091H296.419H297.419C297.419 31.4883 297.617 30.2794 297.989 29.2644L297.05 28.9205ZM296.419 32.9091H295.419C295.419 34.5221 295.642 35.9868 296.109 37.2869L297.05 36.9489L297.991 36.6108C297.617 35.57 297.419 34.3415 297.419 32.9091H296.419ZM297.05 36.9489L296.113 37.298C296.595 38.592 297.307 39.6598 298.275 40.4506L298.908 39.6761L299.54 38.9017C298.895 38.3743 298.368 37.6239 297.987 36.5998L297.05 36.9489ZM298.908 39.6761L298.287 40.4602C299.307 41.2675 300.54 41.6477 301.925 41.6477V40.6477V39.6477C300.923 39.6477 300.145 39.3803 299.528 38.8921L298.908 39.6761ZM325.469 44.875L324.973 45.7436L324.979 45.747L325.469 44.875ZM321.003 40.2045L320.114 40.6637L320.116 40.6657L321.003 40.2045ZM321.003 25.9375L320.113 25.4804L320.113 25.4804L321.003 25.9375ZM325.418 21.1818L324.906 20.3225L324.904 20.3239L325.418 21.1818ZM336.957 20.3125L336.607 21.2492L336.616 21.2523L336.957 20.3125ZM340.878 22.7841L340.174 23.4948L340.178 23.4984L340.878 22.7841ZM343.503 26.9432L342.566 27.2936L342.567 27.2957L343.503 26.9432ZM344.44 34.767V35.767H345.44V34.767H344.44ZM322.332 34.767H321.332V35.767H322.332V34.767ZM322.332 30.267V29.267H321.332V30.267H322.332ZM337.605 30.267V31.267H338.605V30.267H337.605ZM336.923 27.4886L336.052 27.9795L336.052 27.9795L336.923 27.4886ZM335.031 25.5966L334.526 26.4595L334.533 26.4637L334.54 26.4678L335.031 25.5966ZM329.321 25.6648L329.832 26.5243L329.836 26.5223L329.321 25.6648ZM327.344 27.6932L328.213 28.1868L328.216 28.1818L327.344 27.6932ZM326.611 30.5057L325.611 30.4947V30.5057H326.611ZM327.327 38.142L326.434 38.5936L326.439 38.6021L327.327 38.142ZM334.759 40.75L334.437 39.8029L334.437 39.8029L334.759 40.75ZM336.48 39.7273L335.79 39.0031L335.79 39.0031L336.48 39.7273ZM337.571 38.0568L337.637 37.059L336.898 37.0103L336.636 37.7022L337.571 38.0568ZM344.287 38.5L345.265 38.7067L345.504 37.5781L344.353 37.5022L344.287 38.5ZM342.19 42.7273L341.439 42.0678L341.438 42.0683L342.19 42.7273ZM338.134 45.5227L338.505 46.4512L338.508 46.4499L338.134 45.5227ZM332.423 46.5114V45.5114C329.866 45.5114 327.724 44.9941 325.958 44.003L325.469 44.875L324.979 45.747C327.1 46.9377 329.594 47.5114 332.423 47.5114V46.5114ZM325.469 44.875L325.964 44.0064C324.203 43.0014 322.849 41.5876 321.89 39.7434L321.003 40.2045L320.116 40.6657C321.248 42.8443 322.871 44.5441 324.973 45.7436L325.469 44.875ZM321.003 40.2045L321.891 39.7454C320.933 37.8917 320.435 35.6636 320.435 33.0284H319.435H318.435C318.435 35.9159 318.982 38.4719 320.114 40.6637L321.003 40.2045ZM319.435 33.0284H320.435C320.435 30.4661 320.931 28.2642 321.892 26.3946L321.003 25.9375L320.113 25.4804C318.983 27.679 318.435 30.2044 318.435 33.0284H319.435ZM321.003 25.9375L321.892 26.3946C322.855 24.5207 324.199 23.0768 325.931 22.0398L325.418 21.1818L324.904 20.3239C322.84 21.5595 321.241 23.2862 320.113 25.4804L321.003 25.9375ZM325.418 21.1818L325.929 22.0411C327.661 21.0104 329.717 20.4773 332.134 20.4773V19.4773V18.4773C329.414 18.4773 326.993 19.0805 324.906 20.3225L325.418 21.1818ZM332.134 19.4773V20.4773C333.752 20.4773 335.24 20.7377 336.607 21.2491L336.957 20.3125L337.308 19.3759C335.698 18.7737 333.97 18.4773 332.134 18.4773V19.4773ZM336.957 20.3125L336.616 21.2523C337.983 21.7493 339.165 22.4961 340.174 23.4948L340.878 22.7841L341.581 22.0734C340.363 20.8676 338.932 19.9666 337.299 19.3727L336.957 20.3125ZM340.878 22.7841L340.178 23.4984C341.185 24.4854 341.986 25.7421 342.566 27.2936L343.503 26.9432L344.439 26.5928C343.77 24.8034 342.82 23.2874 341.578 22.0698L340.878 22.7841ZM343.503 26.9432L342.567 27.2957C343.14 28.8174 343.44 30.6363 343.44 32.7727H344.44H345.44C345.44 30.4547 345.115 28.3872 344.439 26.5907L343.503 26.9432ZM344.44 32.7727H343.44V34.767H344.44H345.44V32.7727H344.44ZM344.44 34.767V33.767H322.332V34.767V35.767H344.44V34.767ZM322.332 34.767H323.332V30.267H322.332H321.332V34.767H322.332ZM322.332 30.267V31.267H337.605V30.267V29.267H322.332V30.267ZM337.605 30.267H338.605C338.605 29.0722 338.344 27.9729 337.795 26.9978L336.923 27.4886L336.052 27.9795C336.412 28.618 336.605 29.371 336.605 30.267H337.605ZM336.923 27.4886L337.795 26.9978C337.25 26.0318 336.488 25.2696 335.522 24.7253L335.031 25.5966L334.54 26.4678C335.188 26.8327 335.687 27.3318 336.052 27.9795L336.923 27.4886ZM335.031 25.5966L335.537 24.7337C334.567 24.1655 333.461 23.8977 332.253 23.8977V24.8977V25.8977C333.158 25.8977 333.905 26.0958 334.526 26.4595L335.031 25.5966ZM332.253 24.8977V23.8977C330.99 23.8977 329.831 24.1927 328.807 24.8073L329.321 25.6648L329.836 26.5223C330.516 26.1141 331.311 25.8977 332.253 25.8977V24.8977ZM329.321 25.6648L328.81 24.8052C327.818 25.3948 327.034 26.1988 326.471 27.2046L327.344 27.6932L328.216 28.1818C328.608 27.483 329.142 26.9347 329.832 26.5243L329.321 25.6648ZM327.344 27.6932L326.474 27.1996C325.907 28.1979 325.624 29.3034 325.611 30.4947L326.611 30.5057L327.611 30.5167C327.62 29.6397 327.826 28.8702 328.213 28.1868L327.344 27.6932ZM326.611 30.5057H325.611V34.7841H326.611H327.611V30.5057H326.611ZM326.611 34.7841H325.611C325.611 36.2016 325.872 37.4823 326.434 38.5936L327.327 38.142L328.219 37.6905C327.827 36.9154 327.611 35.9575 327.611 34.7841H326.611ZM327.327 38.142L326.439 38.6021C327.012 39.7081 327.831 40.5794 328.889 41.19L329.389 40.3239L329.889 39.4577C329.175 39.0456 328.619 38.4623 328.215 37.682L327.327 38.142ZM329.389 40.3239L328.889 41.19C329.954 41.8043 331.184 42.0909 332.543 42.0909V41.0909V40.0909C331.469 40.0909 330.597 39.8662 329.889 39.4577L329.389 40.3239ZM332.543 41.0909V42.0909C333.444 42.0909 334.292 41.9639 335.08 41.6971L334.759 40.75L334.437 39.8029C333.884 39.9906 333.255 40.0909 332.543 40.0909V41.0909ZM334.759 40.75L335.08 41.6971C335.877 41.4267 336.58 41.0134 337.17 40.4514L336.48 39.7273L335.79 39.0031C335.426 39.3502 334.981 39.6188 334.437 39.8029L334.759 40.75ZM336.48 39.7273L337.17 40.4514C337.763 39.8865 338.207 39.2006 338.506 38.4115L337.571 38.0568L336.636 37.7022C336.435 38.2312 336.152 38.6589 335.79 39.0031L336.48 39.7273ZM337.571 38.0568L337.505 39.0546L344.221 39.4978L344.287 38.5L344.353 37.5022L337.637 37.059L337.571 38.0568ZM344.287 38.5L343.309 38.2933C343.002 39.7442 342.379 40.9961 341.439 42.0678L342.19 42.7273L342.942 43.3868C344.115 42.0494 344.89 40.4831 345.265 38.7067L344.287 38.5ZM342.19 42.7273L341.438 42.0683C340.508 43.1295 339.292 43.9762 337.759 44.5956L338.134 45.5227L338.508 46.4499C340.294 45.7284 341.781 44.7115 342.942 43.3863L342.19 42.7273ZM338.134 45.5227L337.762 44.5943C336.255 45.1971 334.482 45.5114 332.423 45.5114V46.5114V47.5114C334.683 47.5114 336.717 47.1666 338.505 46.4512L338.134 45.5227Z" fill="#545454" mask="url(#path-6-inside-2_42_89)"/>
</svg>
