<svg width="500" height="140" viewBox="0 0 500 140" fill="none" xmlns="http://www.w3.org/2000/svg">
<path d="M80 115C99.33 115 115 99.33 115 80C115 60.67 99.33 45 80 45C60.67 45 45 60.67 45 80C45 99.33 60.67 115 80 115Z" stroke="#2E7D32" stroke-width="5"/>
<path d="M54 80C54 73.1044 56.7393 66.4912 61.6152 61.6152C66.4912 56.7393 73.1044 54 80 54C86.8956 54 93.5088 56.7393 98.3848 61.6152C103.261 66.4912 106 73.1044 106 80" stroke="#2E7D32" stroke-width="3" stroke-dasharray="2 2"/>
<path d="M106 80C106 86.8956 103.261 93.5088 98.3848 98.3848C93.5088 103.261 86.8956 106 80 106C73.1044 106 66.4912 103.261 61.6152 98.3848C56.7393 93.5088 54 86.8956 54 80" stroke="#2E7D32" stroke-width="3" stroke-dasharray="2 2"/>
<path d="M80 92C86.6274 92 92 86.6274 92 80C92 73.3726 86.6274 68 80 68C73.3726 68 68 73.3726 68 80C68 86.6274 73.3726 92 80 92Z" fill="#77F3A4" stroke="#2E7D32" stroke-width="3"/>
<path d="M121.705 54.1761V48.0909H150.375V54.1761H139.688V83H132.392V54.1761H121.705ZM152.241 83V56.8182H159.281V61.3864H159.554C160.031 59.7614 160.832 58.5341 161.957 57.7045C163.082 56.8636 164.378 56.4432 165.844 56.4432C166.207 56.4432 166.599 56.4659 167.02 56.5114C167.44 56.5568 167.81 56.6193 168.128 56.6989V63.142C167.787 63.0398 167.315 62.9489 166.713 62.8693C166.111 62.7898 165.56 62.75 165.06 62.75C163.991 62.75 163.037 62.983 162.196 63.4489C161.366 63.9034 160.707 64.5398 160.219 65.358C159.741 66.1761 159.503 67.1193 159.503 68.1875V83H152.241ZM178.598 83.4943C176.928 83.4943 175.439 83.2045 174.132 82.625C172.825 82.0341 171.791 81.1648 171.03 80.017C170.28 78.858 169.905 77.4148 169.905 75.6875C169.905 74.233 170.172 73.0114 170.706 72.0227C171.24 71.0341 171.967 70.2386 172.888 69.6364C173.808 69.0341 174.854 68.5795 176.024 68.2727C177.206 67.9659 178.445 67.75 179.74 67.625C181.263 67.4659 182.49 67.3182 183.422 67.1818C184.354 67.0341 185.03 66.8182 185.45 66.5341C185.871 66.25 186.081 65.8295 186.081 65.2727V65.1705C186.081 64.0909 185.74 63.2557 185.058 62.6648C184.388 62.0739 183.433 61.7784 182.195 61.7784C180.888 61.7784 179.848 62.0682 179.075 62.6477C178.303 63.2159 177.791 63.9318 177.541 64.7955L170.825 64.25C171.166 62.6591 171.837 61.2841 172.837 60.125C173.837 58.9545 175.126 58.0568 176.706 57.4318C178.297 56.7955 180.138 56.4773 182.229 56.4773C183.683 56.4773 185.075 56.6477 186.405 56.9886C187.746 57.3295 188.933 57.858 189.967 58.5739C191.013 59.2898 191.837 60.2102 192.439 61.3352C193.041 62.4489 193.342 63.7841 193.342 65.3409V83H186.456V79.3693H186.251C185.831 80.1875 185.268 80.9091 184.564 81.5341C183.859 82.1477 183.013 82.6307 182.024 82.983C181.036 83.3239 179.893 83.4943 178.598 83.4943ZM180.678 78.483C181.746 78.483 182.689 78.2727 183.507 77.8523C184.325 77.4205 184.967 76.8409 185.433 76.1136C185.899 75.3864 186.132 74.5625 186.132 73.642V70.8636C185.905 71.0114 185.592 71.1477 185.195 71.2727C184.808 71.3864 184.371 71.4943 183.882 71.5966C183.393 71.6875 182.905 71.7727 182.416 71.8523C181.928 71.9205 181.484 71.983 181.087 72.0398C180.234 72.1648 179.49 72.3636 178.854 72.6364C178.217 72.9091 177.723 73.2784 177.371 73.7443C177.018 74.1989 176.842 74.767 176.842 75.4489C176.842 76.4375 177.2 77.1932 177.916 77.7159C178.643 78.2273 179.564 78.483 180.678 78.483ZM220.76 64.2841L214.112 64.6932C213.999 64.125 213.754 63.6136 213.379 63.1591C213.004 62.6932 212.51 62.3239 211.896 62.0511C211.294 61.767 210.572 61.625 209.732 61.625C208.607 61.625 207.658 61.8636 206.885 62.3409C206.112 62.8068 205.726 63.4318 205.726 64.2159C205.726 64.8409 205.976 65.3693 206.476 65.8011C206.976 66.233 207.834 66.5795 209.05 66.8409L213.788 67.7955C216.334 68.3182 218.232 69.1591 219.482 70.3182C220.732 71.4773 221.357 73 221.357 74.8864C221.357 76.6023 220.851 78.108 219.839 79.4034C218.839 80.6989 217.464 81.7102 215.714 82.4375C213.976 83.1534 211.97 83.5114 209.697 83.5114C206.232 83.5114 203.47 82.7898 201.413 81.3466C199.368 79.892 198.169 77.9148 197.817 75.4148L204.959 75.0398C205.175 76.0966 205.697 76.9034 206.527 77.4602C207.357 78.0057 208.419 78.2784 209.714 78.2784C210.987 78.2784 212.01 78.0341 212.783 77.5455C213.567 77.0455 213.964 76.4034 213.976 75.6193C213.964 74.9602 213.686 74.4205 213.141 74C212.595 73.5682 211.754 73.2386 210.618 73.0114L206.084 72.108C203.527 71.5966 201.624 70.7102 200.374 69.4489C199.135 68.1875 198.516 66.5795 198.516 64.625C198.516 62.9432 198.97 61.4943 199.879 60.2784C200.8 59.0625 202.089 58.125 203.749 57.4659C205.419 56.8068 207.374 56.4773 209.612 56.4773C212.919 56.4773 215.521 57.1761 217.419 58.5739C219.328 59.9716 220.442 61.875 220.76 64.2841ZM233.19 67.8636V83H225.929V48.0909H232.986V61.4375H233.293C233.884 59.892 234.838 58.6818 236.156 57.8068C237.474 56.9205 239.128 56.4773 241.116 56.4773C242.935 56.4773 244.52 56.875 245.872 57.6705C247.236 58.4545 248.293 59.5852 249.043 61.0625C249.804 62.5284 250.179 64.2841 250.168 66.3295V83H242.906V67.625C242.918 66.0114 242.509 64.7557 241.679 63.858C240.861 62.9602 239.713 62.5114 238.236 62.5114C237.247 62.5114 236.372 62.7216 235.611 63.142C234.861 63.5625 234.27 64.1761 233.838 64.983C233.418 65.7784 233.202 66.7386 233.19 67.8636Z" fill="#424242"/>
<path d="M254.705 54.1761V48.0909H283.375V54.1761H272.688V83H265.392V54.1761H254.705ZM285.241 83V56.8182H292.281V61.3864H292.554C293.031 59.7614 293.832 58.5341 294.957 57.7045C296.082 56.8636 297.378 56.4432 298.844 56.4432C299.207 56.4432 299.599 56.4659 300.02 56.5114C300.44 56.5568 300.81 56.6193 301.128 56.6989V63.142C300.787 63.0398 300.315 62.9489 299.713 62.8693C299.111 62.7898 298.56 62.75 298.06 62.75C296.991 62.75 296.037 62.983 295.196 63.4489C294.366 63.9034 293.707 64.5398 293.219 65.358C292.741 66.1761 292.503 67.1193 292.503 68.1875V83H285.241ZM311.598 83.4943C309.928 83.4943 308.439 83.2045 307.132 82.625C305.825 82.0341 304.791 81.1648 304.03 80.017C303.28 78.858 302.905 77.4148 302.905 75.6875C302.905 74.233 303.172 73.0114 303.706 72.0227C304.24 71.0341 304.967 70.2386 305.888 69.6364C306.808 69.0341 307.854 68.5795 309.024 68.2727C310.206 67.9659 311.445 67.75 312.74 67.625C314.263 67.4659 315.49 67.3182 316.422 67.1818C317.354 67.0341 318.03 66.8182 318.45 66.5341C318.871 66.25 319.081 65.8295 319.081 65.2727V65.1705C319.081 64.0909 318.74 63.2557 318.058 62.6648C317.388 62.0739 316.433 61.7784 315.195 61.7784C313.888 61.7784 312.848 62.0682 312.075 62.6477C311.303 63.2159 310.791 63.9318 310.541 64.7955L303.825 64.25C304.166 62.6591 304.837 61.2841 305.837 60.125C306.837 58.9545 308.126 58.0568 309.706 57.4318C311.297 56.7955 313.138 56.4773 315.229 56.4773C316.683 56.4773 318.075 56.6477 319.405 56.9886C320.746 57.3295 321.933 57.858 322.967 58.5739C324.013 59.2898 324.837 60.2102 325.439 61.3352C326.041 62.4489 326.342 63.7841 326.342 65.3409V83H319.456V79.3693H319.251C318.831 80.1875 318.268 80.9091 317.564 81.5341C316.859 82.1477 316.013 82.6307 315.024 82.983C314.036 83.3239 312.893 83.4943 311.598 83.4943ZM313.678 78.483C314.746 78.483 315.689 78.2727 316.507 77.8523C317.325 77.4205 317.967 76.8409 318.433 76.1136C318.899 75.3864 319.132 74.5625 319.132 73.642V70.8636C318.905 71.0114 318.592 71.1477 318.195 71.2727C317.808 71.3864 317.371 71.4943 316.882 71.5966C316.393 71.6875 315.905 71.7727 315.416 71.8523C314.928 71.9205 314.484 71.983 314.087 72.0398C313.234 72.1648 312.49 72.3636 311.854 72.6364C311.217 72.9091 310.723 73.2784 310.371 73.7443C310.018 74.1989 309.842 74.767 309.842 75.4489C309.842 76.4375 310.2 77.1932 310.916 77.7159C311.643 78.2273 312.564 78.483 313.678 78.483ZM341.624 83.4261C339.635 83.4261 337.834 82.9148 336.22 81.892C334.618 80.858 333.345 79.3409 332.402 77.3409C331.47 75.3295 331.004 72.8636 331.004 69.9432C331.004 66.9432 331.487 64.4489 332.453 62.4602C333.419 60.4602 334.703 58.9659 336.305 57.9773C337.919 56.9773 339.686 56.4773 341.607 56.4773C343.072 56.4773 344.294 56.7273 345.271 57.2273C346.26 57.7159 347.055 58.3295 347.658 59.0682C348.271 59.7955 348.737 60.5114 349.055 61.2159H349.277V48.0909H356.521V83H349.362V78.8068H349.055C348.714 79.5341 348.232 80.2557 347.607 80.9716C346.993 81.6761 346.192 82.2614 345.203 82.7273C344.226 83.1932 343.033 83.4261 341.624 83.4261ZM343.925 77.6477C345.095 77.6477 346.084 77.3295 346.891 76.6932C347.709 76.0455 348.334 75.142 348.766 73.983C349.209 72.8239 349.43 71.4659 349.43 69.9091C349.43 68.3523 349.214 67 348.783 65.8523C348.351 64.7045 347.726 63.8182 346.908 63.1932C346.089 62.5682 345.095 62.2557 343.925 62.2557C342.732 62.2557 341.726 62.5795 340.908 63.2273C340.089 63.875 339.47 64.7727 339.05 65.9205C338.629 67.0682 338.419 68.3977 338.419 69.9091C338.419 71.4318 338.629 72.7784 339.05 73.9489C339.482 75.108 340.101 76.017 340.908 76.6761C341.726 77.3239 342.732 77.6477 343.925 77.6477ZM374.423 83.5114C371.73 83.5114 369.412 82.9659 367.469 81.875C365.537 80.7727 364.048 79.2159 363.003 77.2045C361.957 75.1818 361.435 72.7898 361.435 70.0284C361.435 67.3352 361.957 64.9716 363.003 62.9375C364.048 60.9034 365.52 59.3182 367.418 58.1818C369.327 57.0455 371.565 56.4773 374.134 56.4773C375.861 56.4773 377.469 56.7557 378.957 57.3125C380.457 57.858 381.764 58.6818 382.878 59.7841C384.003 60.8864 384.878 62.2727 385.503 63.9432C386.128 65.6023 386.44 67.5455 386.44 69.7727V71.767H364.332V67.267H379.605C379.605 66.2216 379.378 65.2955 378.923 64.4886C378.469 63.6818 377.838 63.0511 377.031 62.5966C376.236 62.1307 375.31 61.8977 374.253 61.8977C373.151 61.8977 372.173 62.1534 371.321 62.6648C370.48 63.1648 369.821 63.8409 369.344 64.6932C368.866 65.5341 368.622 66.4716 368.611 67.5057V71.7841C368.611 73.0795 368.849 74.1989 369.327 75.142C369.815 76.0852 370.503 76.8125 371.389 77.3239C372.276 77.8352 373.327 78.0909 374.543 78.0909C375.349 78.0909 376.088 77.9773 376.759 77.75C377.429 77.5227 378.003 77.1818 378.48 76.7273C378.957 76.2727 379.321 75.7159 379.571 75.0568L386.287 75.5C385.946 77.1136 385.247 78.5227 384.19 79.7273C383.145 80.9205 381.793 81.8523 380.134 82.5227C378.486 83.1818 376.582 83.5114 374.423 83.5114Z" fill="#2E7D32"/>
</svg>
