<svg width="200" height="200" viewBox="0 0 200 200" fill="none" xmlns="http://www.w3.org/2000/svg">
<path opacity="0.5" fill-rule="evenodd" clip-rule="evenodd" d="M118.99 17.9353C115.904 16.6667 111.992 16.6667 104.167 16.6667C96.3416 16.6667 92.4291 16.6667 89.3433 17.9353C85.2283 19.6269 81.9591 22.8715 80.2546 26.9553C79.4766 28.8195 79.1721 30.9875 79.0529 34.1499C78.8778 38.7973 76.4763 43.0991 72.4181 45.4244C68.3598 47.7497 63.4053 47.6628 59.2624 45.4897C56.4431 44.0108 54.3991 43.1885 52.3832 42.9252C47.9674 42.3482 43.5015 43.5358 39.968 46.2267C37.3178 48.2448 35.3616 51.6075 31.4491 58.3328C27.5367 65.0581 25.5806 68.4207 25.1446 71.7076C24.5631 76.09 25.7598 80.5222 28.4712 84.0292C29.7088 85.63 31.4481 86.975 34.1475 88.6583C38.1159 91.1333 40.6693 95.3492 40.6691 100C40.6688 104.651 38.1155 108.866 34.1475 111.34C31.4476 113.024 29.7081 114.37 28.4704 115.971C25.759 119.478 24.5624 123.909 25.1437 128.292C25.5797 131.578 27.536 134.942 31.4483 141.667C35.3607 148.392 37.317 151.755 39.9671 153.772C43.5006 156.463 47.9666 157.651 52.3824 157.074C54.3981 156.811 56.4421 155.988 59.2611 154.51C63.4043 152.337 68.3591 152.25 72.4176 154.575C76.4761 156.901 78.8777 161.202 79.0529 165.851C79.1721 169.012 79.4766 171.181 80.2546 173.045C81.9591 177.128 85.2283 180.373 89.3433 182.065C92.4291 183.333 96.3416 183.333 104.167 183.333C111.992 183.333 115.904 183.333 118.99 182.065C123.105 180.373 126.374 177.128 128.078 173.045C128.857 171.181 129.162 169.013 129.281 165.85C129.456 161.203 131.857 156.901 135.915 154.575C139.973 152.249 144.928 152.337 149.072 154.51C151.891 155.988 153.934 156.81 155.95 157.073C160.366 157.651 164.832 156.463 168.365 153.772C171.016 151.754 172.972 148.392 176.884 141.666C180.797 134.941 182.752 131.578 183.189 128.292C183.77 123.909 182.573 119.477 179.862 115.97C178.624 114.369 176.885 113.023 174.185 111.34C170.217 108.866 167.664 104.65 167.664 99.9992C167.664 95.3483 170.217 91.1342 174.185 88.66C176.886 86.9758 178.625 85.6308 179.863 84.0292C182.574 80.5228 183.771 76.0906 183.19 71.7081C182.753 68.4213 180.797 65.0586 176.885 58.3333C172.972 51.6081 171.017 48.2454 168.366 46.2273C164.832 43.5363 160.367 42.3488 155.951 42.9258C153.935 43.1891 151.891 44.0113 149.072 45.49C144.929 47.6633 139.974 47.7502 135.916 45.4247C131.857 43.0993 129.456 38.7972 129.28 34.1495C129.161 30.9873 128.857 28.8194 128.078 26.9553C126.374 22.8715 123.105 19.6269 118.99 17.9353Z" fill="#77F3A4"/>
<path d="M129.356 100C129.356 113.807 118.079 125 104.166 125C90.2535 125 78.9756 113.807 78.9756 100C78.9756 86.1925 90.2535 75 104.166 75C118.079 75 129.356 86.1925 129.356 100Z" fill="#03091F"/>
</svg>
