<svg width="150" height="150" viewBox="0 0 150 150" fill="none" xmlns="http://www.w3.org/2000/svg">
<path d="M122.964 45.3483C122.964 34.0637 118.482 23.2414 110.502 15.262C102.523 7.28258 91.7005 2.7998 80.4159 2.7998H57.7307C49.641 2.80174 41.7195 5.10985 34.8949 9.45355C28.0702 13.7972 22.6253 19.9965 19.1985 27.3245C15.7716 34.6526 14.5049 42.8057 15.5467 50.828C16.5886 58.8503 19.8958 66.4094 25.0808 72.619C18.2952 84.1202 16.3205 97.8338 19.5855 110.782C22.8504 123.731 31.0914 134.868 42.5191 141.777H95.0323C106.419 134.928 114.652 123.872 117.952 111.001C121.253 98.1299 119.355 84.4769 112.669 72.9938C119.305 65.3114 122.959 55.4999 122.964 45.3483ZM40.3365 122.928C35.1778 111.133 31.8709 97.112 45.87 76.8518C61.699 57.3192 81.2757 62.1032 81.2536 62.1032C81.2316 62.1032 38.4406 78.2407 40.3365 122.928ZM103.718 61.5741C94.3713 52.6737 81.9751 47.6839 69.0685 47.6265C56.1619 47.5691 43.7218 52.4486 34.296 61.2654C31.4111 56.9999 29.7416 52.0296 29.4662 46.8875C29.1908 41.7454 30.3201 36.6253 32.7329 32.076C35.1457 27.5268 38.7511 23.72 43.1626 21.0637C47.5741 18.4073 52.6253 17.0017 57.7748 16.9973H80.46C87.9544 17.0381 95.1283 20.0424 100.415 25.3541C105.702 30.6659 108.673 37.8538 108.679 45.3483C108.72 51.1463 106.964 56.8146 103.652 61.5741H103.718Z" fill="#2E7D32"/>
<path d="M103.013 150H48.427C47.9293 149.999 47.4415 149.861 47.016 149.603C34.7785 142.236 25.8625 130.423 22.1319 116.635C18.4013 102.847 20.145 88.1499 26.9984 75.6173C21.6576 68.6632 18.3695 60.3533 17.5062 51.6276C16.6428 42.9019 18.2386 34.1087 22.113 26.2429C25.9875 18.377 31.9859 11.7524 39.4297 7.11852C46.8735 2.48465 55.4656 0.0264421 64.2339 0.0220155H87.8229C96.6429 0.0101002 105.288 2.48476 112.765 7.16208C120.243 11.8394 126.25 18.5299 130.099 26.466C133.947 34.4021 135.48 43.2623 134.522 52.0301C133.565 60.7979 130.155 69.1181 124.684 76.0361C131.4 88.5542 133.042 103.176 129.27 116.873C125.498 130.569 116.601 142.288 104.423 149.603C103.998 149.861 103.51 149.999 103.013 150ZM49.1545 144.533H102.197C113.216 137.688 121.132 126.817 124.265 114.229C127.397 101.641 125.499 88.3274 118.974 77.1164C118.689 76.6261 118.563 76.0592 118.614 75.4944C118.666 74.9295 118.891 74.3946 119.26 73.9638C124.424 67.9473 127.754 60.5768 128.857 52.7256C129.96 44.8743 128.788 36.8715 125.482 29.6655C122.176 22.4594 116.874 16.3521 110.203 12.0672C103.532 7.78237 95.7732 5.49959 87.845 5.48939H64.2559C56.3626 5.49057 48.6332 7.74213 41.974 11.9801C35.3149 16.218 30.002 22.2667 26.6583 29.4168C23.3147 36.5669 22.0788 44.5221 23.0957 52.3497C24.1126 60.1772 27.34 67.5526 32.3996 73.6111C32.7603 74.0424 32.9792 74.5743 33.0265 75.1345C33.0739 75.6947 32.9473 76.2559 32.6642 76.7416C26.0139 87.9563 24.0159 101.328 27.0976 113.997C30.1794 126.666 38.0961 137.626 49.1545 144.533ZM111.941 66.5785C111.244 66.5768 110.573 66.3086 110.067 65.8289C100.81 56.9876 88.4984 52.0598 75.6977 52.0723C63.0482 52.0666 50.8706 56.8746 41.6369 65.5202C41.3485 65.7887 41.0054 65.9916 40.6313 66.1152C40.2572 66.2387 39.8607 66.2799 39.4692 66.2359C39.0777 66.1919 38.7003 66.0638 38.3628 65.8604C38.0254 65.657 37.7359 65.383 37.5143 65.0573C34.2312 60.2112 32.3299 54.5626 32.0142 48.7177C31.6986 42.8728 32.9806 37.0523 35.7227 31.8808C38.4648 26.7094 42.5634 22.3823 47.5786 19.364C52.5938 16.3458 58.3363 14.7502 64.1898 14.7486H87.7788C96.3252 14.7545 104.52 18.1521 110.563 24.1954C116.606 30.2386 120.004 38.4333 120.01 46.9797C120.019 53.58 117.977 60.0201 114.168 65.41C113.942 65.7306 113.65 65.9989 113.311 66.1967C112.973 66.3945 112.596 66.5172 112.206 66.5564H111.941V66.5785ZM75.6977 46.627C88.7482 46.6125 101.38 51.2295 111.346 59.6561C113.459 55.7731 114.566 51.4225 114.565 47.0017C114.559 39.9054 111.737 33.1013 106.719 28.0834C101.701 23.0655 94.8972 20.2439 87.8009 20.2381H64.2118C59.6178 20.2429 55.1022 21.4293 51.099 23.6832C47.0958 25.937 43.7396 29.1826 41.3529 33.1081C38.9662 37.0335 37.6292 41.5068 37.4705 46.0982C37.3117 50.6895 38.3365 55.2445 40.4464 59.3254C50.3591 51.1009 62.8394 46.608 75.7197 46.627H75.6977Z" fill="#77F3A4"/>
</svg>
