<svg width="149" height="198" viewBox="0 0 149 198" fill="none" xmlns="http://www.w3.org/2000/svg">
<path d="M134.783 129.071C142.783 120.071 147.283 107.737 146.45 94.4041C145.283 78.0708 135.45 63.9041 121.616 56.5708C121.616 57.9041 121.616 59.2374 121.616 60.7374C120.283 92.2374 94.4496 118.904 62.783 121.404C61.6163 121.404 60.4496 121.571 59.283 121.571C66.9496 134.404 80.4496 143.404 95.9496 144.571C102.45 144.904 108.783 144.237 114.783 142.237C117.783 141.237 129.616 146.904 136.283 150.404C137.95 151.237 139.95 149.571 139.116 147.737C136.616 141.404 133.283 130.904 134.783 129.071Z" fill="#77F3A4"/>
<path d="M115.283 60.4041C113.95 89.0708 90.7831 112.904 62.2831 115.071C54.2831 115.571 46.4497 114.571 39.1164 112.237C35.2831 110.904 20.9497 118.071 12.6164 122.404C10.6164 123.404 8.11639 121.404 9.11639 119.071C12.1164 111.071 16.4497 98.0708 14.4497 95.9041C4.61639 84.7374 -0.88361 69.7374 0.11639 53.2374C2.11639 24.5708 26.1164 1.23742 54.7831 0.0707583C88.7831 -1.59591 116.783 26.4041 115.283 60.4041Z" fill="#2E7D32"/>
<path d="M58.9497 70.9041H54.4497C53.1164 70.9041 51.9497 69.7374 51.9497 68.4041C51.9497 65.4041 52.4497 62.9041 53.4497 60.9041C54.4497 58.9041 56.4497 56.7374 59.4497 54.4041C62.4497 51.9041 64.2831 50.4041 64.7831 49.5708C65.6164 48.4041 66.1164 47.0708 66.1164 45.5708C66.1164 43.5708 65.2831 41.9041 63.7831 40.4041C62.1164 38.9041 60.1164 38.2374 57.2831 38.2374C54.6164 38.2374 52.4497 38.9041 50.7831 40.4041C49.7831 41.2374 48.9497 42.4041 48.2831 43.7374C47.4497 45.7374 45.4497 46.9041 43.2831 46.7374C39.9497 46.2374 37.9497 42.5708 39.6164 39.5708C40.4497 37.9041 41.7831 36.4041 43.2831 34.9041C46.7831 31.9041 51.2831 30.4041 56.7831 30.4041C62.6164 30.4041 67.2831 31.9041 70.7831 35.0708C74.2831 38.0708 75.9497 41.7374 75.9497 45.7374C75.9497 48.0708 75.2831 50.0708 74.1164 52.0708C72.9497 54.0708 70.1164 56.9041 65.9497 60.2374C63.7831 62.0708 62.4497 63.4041 61.9497 64.5708C61.6164 65.4041 61.2831 66.5708 61.2831 68.2374C61.2831 69.9041 60.2831 70.9041 58.9497 70.9041ZM52.1164 79.7374V79.2374C52.1164 76.5708 54.2831 74.4041 56.9497 74.4041H57.4497C60.1164 74.4041 62.2831 76.5708 62.2831 79.2374V79.7374C62.2831 82.4041 60.1164 84.5708 57.4497 84.5708H56.9497C54.2831 84.5708 52.1164 82.4041 52.1164 79.7374Z" fill="white"/>
<path d="M31.8068 158.727V182H26.9432V162.727H17.5341V182H12.6705V158.727H31.8068ZM44.2869 182.341C42.5218 182.341 40.9953 181.966 39.7074 181.216C38.4271 180.458 37.4384 179.405 36.7415 178.057C36.0445 176.701 35.696 175.129 35.696 173.341C35.696 171.538 36.0445 169.962 36.7415 168.614C37.4384 167.258 38.4271 166.205 39.7074 165.455C40.9953 164.697 42.5218 164.318 44.2869 164.318C46.0521 164.318 47.5748 164.697 48.8551 165.455C50.143 166.205 51.1354 167.258 51.8324 168.614C52.5294 169.962 52.8778 171.538 52.8778 173.341C52.8778 175.129 52.5294 176.701 51.8324 178.057C51.1354 179.405 50.143 180.458 48.8551 181.216C47.5748 181.966 46.0521 182.341 44.2869 182.341ZM44.3097 178.591C45.1127 178.591 45.7831 178.364 46.321 177.909C46.8589 177.447 47.2642 176.818 47.5369 176.023C47.8172 175.227 47.9574 174.322 47.9574 173.307C47.9574 172.292 47.8172 171.386 47.5369 170.591C47.2642 169.795 46.8589 169.167 46.321 168.705C45.7831 168.242 45.1127 168.011 44.3097 168.011C43.4991 168.011 42.8172 168.242 42.2642 168.705C41.7188 169.167 41.3059 169.795 41.0256 170.591C40.7528 171.386 40.6165 172.292 40.6165 173.307C40.6165 174.322 40.7528 175.227 41.0256 176.023C41.3059 176.818 41.7188 177.447 42.2642 177.909C42.8172 178.364 43.4991 178.591 44.3097 178.591ZM66.3438 176.648L71.071 164.545H74.7528L67.946 182H64.7301L58.0824 164.545H61.7528L66.3438 176.648ZM60.6506 164.545V182H56.0256V164.545H60.6506ZM72.2756 182V164.545H76.8438V182H72.2756ZM88.4744 182.341C86.7093 182.341 85.1828 181.966 83.8949 181.216C82.6146 180.458 81.6259 179.405 80.929 178.057C80.232 176.701 79.8835 175.129 79.8835 173.341C79.8835 171.538 80.232 169.962 80.929 168.614C81.6259 167.258 82.6146 166.205 83.8949 165.455C85.1828 164.697 86.7093 164.318 88.4744 164.318C90.2396 164.318 91.7623 164.697 93.0426 165.455C94.3305 166.205 95.3229 167.258 96.0199 168.614C96.7169 169.962 97.0653 171.538 97.0653 173.341C97.0653 175.129 96.7169 176.701 96.0199 178.057C95.3229 179.405 94.3305 180.458 93.0426 181.216C91.7623 181.966 90.2396 182.341 88.4744 182.341ZM88.4972 178.591C89.3002 178.591 89.9706 178.364 90.5085 177.909C91.0464 177.447 91.4517 176.818 91.7244 176.023C92.0047 175.227 92.1449 174.322 92.1449 173.307C92.1449 172.292 92.0047 171.386 91.7244 170.591C91.4517 169.795 91.0464 169.167 90.5085 168.705C89.9706 168.242 89.3002 168.011 88.4972 168.011C87.6866 168.011 87.0047 168.242 86.4517 168.705C85.9063 169.167 85.4934 169.795 85.2131 170.591C84.9403 171.386 84.804 172.292 84.804 173.307C84.804 174.322 84.9403 175.227 85.2131 176.023C85.4934 176.818 85.9063 177.447 86.4517 177.909C87.0047 178.364 87.6866 178.591 88.4972 178.591ZM127.634 178.193L127.293 187H122.849V182H120.906V178.193H127.634ZM100.213 164.545H104.838V178.159H109.759V164.545H114.384V178.159H119.304V164.545H123.929V182H100.213V164.545ZM133.56 169.909H138.776C141.086 169.909 142.889 170.462 144.185 171.568C145.48 172.667 146.128 174.136 146.128 175.977C146.128 177.174 145.836 178.227 145.253 179.136C144.67 180.038 143.829 180.742 142.73 181.25C141.632 181.75 140.313 182 138.776 182H130.526V164.545H135.151V178.193H138.776C139.586 178.193 140.253 177.989 140.776 177.58C141.298 177.17 141.563 176.648 141.571 176.011C141.563 175.337 141.298 174.788 140.776 174.364C140.253 173.932 139.586 173.716 138.776 173.716H133.56V169.909Z" fill="black"/>
</svg>
