<svg width="144" height="144" viewBox="0 0 144 144" fill="none" xmlns="http://www.w3.org/2000/svg">
<g clip-path="url(#clip0_10_17)">
<path d="M123.62 143.19H19.57C8.76 143.19 0 134.43 0 123.62V19.57C0 8.76 8.76 0 19.57 0H123.61C134.42 0 143.18 8.76 143.18 19.57V123.61C143.19 134.43 134.43 143.19 123.62 143.19Z" fill="url(#paint0_linear_10_17)"/>
<path d="M114.15 37.53C117.17 37.53 119.44 40.18 118.22 45.1L103.46 114.69C102.43 119.64 99.44 120.83 95.31 118.53L60.09 92.52C59.62 92.18 59.51 91.52 59.85 91.04C59.92 90.95 60 90.86 60.09 90.8L100.76 54.08C102.61 52.44 100.36 51.65 97.93 53.13L46.89 85.33C46.58 85.53 46.19 85.58 45.83 85.46L24.16 78.61C19.34 77.21 19.34 73.9 25.24 71.55L111.95 38.11C112.64 37.75 113.39 37.56 114.15 37.53Z" fill="white"/>
</g>
<defs>
<linearGradient id="paint0_linear_10_17" x1="0" y1="71.595" x2="143.18" y2="71.595" gradientUnits="userSpaceOnUse">
<stop stop-color="#4D6897"/>
<stop offset="0.1651" stop-color="#4D7496"/>
<stop offset="0.3526" stop-color="#4E8598"/>
<stop offset="0.5347" stop-color="#4F9499"/>
<stop offset="0.7073" stop-color="#4F9F99"/>
<stop offset="0.8667" stop-color="#50A699"/>
<stop offset="1" stop-color="#50A999"/>
</linearGradient>
<clipPath id="clip0_10_17">
<rect width="143.18" height="143.19" fill="white"/>
</clipPath>
</defs>
</svg>
